<svg xmlns="http://www.w3.org/2000/svg" xmlns:xlink="http://www.w3.org/1999/xlink" width="328.488" height="242.494" viewBox="0 0 328.488 242.494">
  <defs>
    <linearGradient id="linear-gradient" x1="0.5" y1="1" x2="0.5" gradientUnits="objectBoundingBox">
      <stop offset="0" stop-color="gray" stop-opacity="0.251"/>
      <stop offset="0.54" stop-color="gray" stop-opacity="0.122"/>
      <stop offset="1" stop-color="gray" stop-opacity="0.102"/>
    </linearGradient>
  </defs>
  <g id="Login_Illustration" data-name="Login Illustration" transform="translate(0.485 0)">
    <g id="Background">
      <path id="Path_128" data-name="Path 128" d="M90.86,356.75h28.519v38.875H92.945c-.067.4-.135.8-.211,1.2h26.645v31.346a.4.4,0,0,1-.132-.051q-1.124-.447-2.248-.947c-.16-.073-.318-.149-.481-.219q-1.124-.531-2.248-1.124c-.261-.138-.523-.281-.778-.427a46.774,46.774,0,0,1-11.213-8.729c-.1-.093-.188-.194-.281-.281-.455-.495-.9-.995-1.335-1.506-.163-.188-.32-.379-.481-.562-.511-.624-1.006-1.27-1.484-1.919-.073-.1-.141-.194-.211-.281a41.511,41.511,0,0,1-4.834-8.74c-.039-.093-.076-.194-.112-.281-.388-.984-.739-1.981-1.043-3-.129-.424-.256-.843-.363-1.284-.039-.126-.07-.256-.1-.382-1.579-6.225-1.762-12.694-1.762-19.133V377.06q.034-3.943.093-7.877.022-1.012.042-2.032.059-2.583.169-5.177c.017-.478.039-.958.065-1.433q.017-.413.042-.826Q90.756,358.223,90.86,356.75Z" transform="translate(-69.521 -261.705)" fill="#ff7364" opacity="0.1"/>
      <path id="Path_129" data-name="Path 129" d="M153.825,152.17H138.18a119.1,119.1,0,0,1,8.321-11.449c2.327-2.855,4.778-5.638,7.324-8.319Z" transform="translate(-103.967 -100.41)" fill="#ff7364" opacity="0.1"/>
      <path id="Path_130" data-name="Path 130" d="M121.117,207v40.885H92.688c0-.118.017-.239.028-.357.025-.323.051-.644.079-.967.028-.377.065-.753.1-1.124s.073-.821.118-1.228.081-.821.126-1.228.09-.815.141-1.22.1-.815.152-1.22c.042-.334.084-.672.132-1.009.065-.475.132-.95.2-1.422a1.349,1.349,0,0,1,.034-.214,98.061,98.061,0,0,1,2.091-10.263,76,76,0,0,1,3.527-10.4A78.094,78.094,0,0,1,104.724,207Z" transform="translate(-71.259 -154.043)" fill="#ff7364" opacity="0.1"/>
      <path id="Path_131" data-name="Path 131" d="M218.094,113.607v38.875h60.917V113.607Zm0,40.078v33.387c.349.07.691.141,1.037.2q.7.135,1.4.242l.281.039c.185.031.374.056.562.079.469.067.939.118,1.4.163.219.022.447.039.669.059l.542.039h0c.3.022.587.039.88.051.18,0,.36.014.542.02s.281,0,.427,0H227.4c.242,0,.483,0,.722-.022h.014a4.3,4.3,0,0,0,.5-.02,1.229,1.229,0,0,0,.143,0,3.39,3.39,0,0,0,.416-.017.588.588,0,0,1,.1,0c.312-.02.627-.045.944-.073s.618-.062.936-.1l.638-.079a55.971,55.971,0,0,0,7.714-1.641c5.685-1.585,11.241-3.8,16.924-5.424,7.341-2.094,15.457-3.125,22.55-.576v-26.33Zm60.917-83.363V18.568a78.276,78.276,0,0,0-19.79,2.319c-15.426,3.875-29.278,12.281-41.126,23.017V70.32h3.066v1.2h-3.066V112.4h60.917V71.52H233.7v-1.2ZM357.273,52.84a25.218,25.218,0,0,1-11.045-3.209c-6.559-3.566-11.8-9.08-17.66-13.728a81.086,81.086,0,0,0-42.742-16.986V70.323H372.78L373,70.1Zm7.922-1.4,8.4,9.221V49.009a33.629,33.629,0,0,0-8.4,2.414Zm8.4,143.929V153.686H355.682c-.045-.177-.1-.357-.152-.537.053.18.1.36.149.537H285.826v30.138c.663.492,1.318,1.012,1.967,1.534h0q1.051.86,2.088,1.74l.7.576c.334.281.674.562,1.012.829q1.014.818,2.043,1.619.514.4,1.034.8a141.1,141.1,0,0,0,17.323,11.328c1.355.756,2.723,1.484,4.1,2.195q1.374.708,2.768,1.388,2.091,1.02,4.215,1.967h0a154.735,154.735,0,0,0,41.031,11.95q4.716.694,9.474,1.1V195.357h.281ZM285.826,71.52V112.4H373.6V71.52Zm0,42.082v38.881H373.6V113.607Zm94.582-64.649V61.965L391.126,50.2q-5.326-.882-10.719-1.247Zm0,64.655v38.875h85.364V113.607Zm85.063,84.838.3-44.76H380.407v67.608a153.813,153.813,0,0,0,16.5-.2h.1q3.935-.253,7.832-.719h.059a144.028,144.028,0,0,0,40.252-10.752m37.1-89.63q-.486-1.124-1-2.248c-.635-1.4-1.3-2.771-2-4.134h-6.661v38.873h16.837c-.014-11.011-2.8-22.252-7.183-32.49Zm-9.65,33.693v38.5a55.093,55.093,0,0,0,11.635-15.693,54.014,54.014,0,0,0,5.191-22.811Zm0-51.407V112.4h6.037a109.9,109.9,0,0,0-6.046-10.121Zm-57.9-45.7c-.444-.171-.891-.343-1.338-.506a121.45,121.45,0,0,0-14.417-4.334l-16.407,18h0l-.32.346.211.228h58.393A124.751,124.751,0,0,0,414.7,56.576ZM442.53,71.52H381.6l-1.2,1.093V112.4h85.364V93.126A121.548,121.548,0,0,0,442.53,71.52Z" transform="translate(-161.423 -18.563)" fill="#ff7364" opacity="0.1"/>
      <path id="Path_132" data-name="Path 132" d="M121.117,280.391v20.26H92.688c0-.118.017-.239.028-.357.025-.323.051-.644.079-.967.028-.377.065-.753.1-1.124s.073-.821.118-1.228.081-.821.126-1.228.09-.815.141-1.22.1-.815.152-1.22c.042-.334.084-.672.132-1.009.065-.475.132-.95.2-1.422a1.349,1.349,0,0,1,.034-.214A98.051,98.051,0,0,1,95.891,280.4Z" transform="translate(-71.259 -206.808)" fill="#ff7364" opacity="0.1"/>
      <path id="Path_133" data-name="Path 133" d="M90.86,356.75h28.519v38.875H92.945c-.067.4-.135.8-.211,1.2h26.645v31.346a.4.4,0,0,1-.132-.051q-1.124-.447-2.248-.947c-.16-.073-.318-.149-.481-.219q-1.124-.531-2.248-1.124c-.261-.138-.523-.281-.778-.427a46.774,46.774,0,0,1-11.213-8.729c-.1-.093-.188-.194-.281-.281-.455-.495-.9-.995-1.335-1.506-.163-.188-.32-.379-.481-.562-.511-.624-1.006-1.27-1.484-1.919-.073-.1-.141-.194-.211-.281a41.511,41.511,0,0,1-4.834-8.74c-.039-.093-.076-.194-.112-.281-.388-.984-.739-1.981-1.043-3-.129-.424-.256-.843-.363-1.284-.039-.126-.07-.256-.1-.382-1.579-6.225-1.762-12.694-1.762-19.133V377.06q.034-3.943.093-7.877.022-1.012.042-2.032.059-2.583.169-5.177c.017-.478.039-.958.065-1.433q.017-.413.042-.826Q90.756,358.223,90.86,356.75Z" transform="translate(-69.521 -261.705)" fill="#ff7364" opacity="0.1"/>
      <path id="Path_134" data-name="Path 134" d="M223.571,178.945v35.028H202.125V178.945h3.058v-11.86h12.551v11.86Z" transform="translate(-145.457 -120.132)" fill="#ff7364" opacity="0.1"/>
      <rect id="Rectangle_82" data-name="Rectangle 82" width="21.443" height="38.875" transform="translate(56.668 95.042)" fill="#ff7364" opacity="0.1"/>
      <path id="Path_135" data-name="Path 135" d="M218.094,499.375h21.443v32.319a55.534,55.534,0,0,1-7.714,1.638c-.214.031-.424.056-.638.079-.315.036-.627.07-.939.1l-.941.076h-.1l-.416.023h-.143c-.169,0-.334.02-.5.022h-.014c-.242,0-.481.017-.722.022h-1.99a4.44,4.44,0,0,1-.545-.022q-.433-.017-.877-.051h0l-.542-.039c-.225-.017-.45-.039-.672-.062q-.708-.062-1.4-.16l-.562-.079-.281-.039q-.7-.105-1.4-.239c-.348-.062-.691-.132-1.037-.205Z" transform="translate(-161.423 -364.252)" fill="#ff7364" opacity="0.1"/>
      <rect id="Rectangle_83" data-name="Rectangle 83" width="17.683" height="39.162" transform="translate(194.487 54.677)" fill="#ff7364" opacity="0.1"/>
      <path id="Path_136" data-name="Path 136" d="M530.926,338.187v38.878h-87.77V360.3h46.75v9.892H513.24v-32Z" transform="translate(-318.754 -243.146)" fill="#ff7364" opacity="0.1"/>
      <path id="Path_137" data-name="Path 137" d="M547.142,539.691a1.591,1.591,0,0,1-.281-.017v25.5q-4.752-.391-9.471-1.093a154.942,154.942,0,0,1-41.048-11.944q-5.657-2.552-11.084-5.562a141.634,141.634,0,0,1-17.32-11.328q-2.074-1.585-4.086-3.24c-.93-.77-1.852-1.557-2.791-2.319-.646-.526-1.3-1.045-1.967-1.54V498.005h69.854c-.051-.18-.1-.357-.146-.537.053.18.1.357.149.537h17.913v41.666C546.956,539.674,547.049,539.683,547.142,539.691Z" transform="translate(-334.691 -362.883)" fill="#ff7364" opacity="0.1"/>
      <path id="Path_138" data-name="Path 138" d="M906.022,166.292H894.5v-3.58h5.163V152.047q.672.247,1.338.506v10.159h5.019Z" transform="translate(-647.733 -114.533)" fill="#ff7364" opacity="0.1"/>
      <path id="Path_139" data-name="Path 139" d="M862.725,247.885H806.153a.037.037,0,0,0,.017,0H795.656V208.723h2.973v28.946h13.585V220.526h11.227V207h11.522v13.535h11.222v17.143h16.542Z" transform="translate(-576.672 -154.043)" fill="#ff7364" opacity="0.1"/>
      <path id="Path_140" data-name="Path 140" d="M795.656,356.75v38.875h67.072V356.75Zm85.268,84.633.1-30.773h-18.3V396.839H795.656v67.6a153.818,153.818,0,0,0,16.5-.2h.1q3.934-.253,7.832-.719h.059A144.027,144.027,0,0,0,860.4,452.768" transform="translate(-576.672 -261.705)" fill="#ff7364" opacity="0.1"/>
      <path id="Path_141" data-name="Path 141" d="M1124.84,499.375h15.645a54.037,54.037,0,0,1-5.191,22.809,55.062,55.062,0,0,1-11.635,15.7V513.148h1.18Z" transform="translate(-812.493 -364.252)" fill="#ff7364" opacity="0.1"/>
      <path id="Path_142" data-name="Path 142" d="M1143.5,411.975h-15.656v-32.49h8.473C1140.7,389.722,1143.49,400.964,1143.5,411.975Z" transform="translate(-815.5 -278.055)" fill="#ff7364" opacity="0.1"/>
      <rect id="Rectangle_84" data-name="Rectangle 84" width="9.474" height="12.278" transform="translate(202.698 65.564)" fill="#ff7364" opacity="0.1"/>
      <rect id="Rectangle_85" data-name="Rectangle 85" width="9.474" height="2.827" transform="translate(202.698 91.015)" fill="#ff7364" opacity="0.1"/>
      <rect id="Rectangle_86" data-name="Rectangle 86" width="9.474" height="8.248" transform="translate(202.698 95.042)" fill="#ff7364" opacity="0.1"/>
      <rect id="Rectangle_87" data-name="Rectangle 87" width="9.474" height="12.278" transform="translate(202.698 116.465)" fill="#ff7364" opacity="0.1"/>
      <rect id="Rectangle_88" data-name="Rectangle 88" width="9.474" height="12.278" transform="translate(202.698 141.915)" fill="#ff7364" opacity="0.1"/>
      <path id="Path_143" data-name="Path 143" d="M747.161,623.517a1.363,1.363,0,0,1,.281.02,1.586,1.586,0,0,1-.281-.017v2.853h-9.474V614.094h9.474Z" transform="translate(-534.989 -446.728)" fill="#ff7364" opacity="0.1"/>
      <path id="Path_144" data-name="Path 144" d="M747.161,704.656v9.482q-4.755-.391-9.474-1.093v-8.389Z" transform="translate(-534.989 -511.843)" fill="#ff7364" opacity="0.1"/>
      <rect id="Rectangle_89" data-name="Rectangle 89" width="40.601" height="0.902" transform="translate(124.402 133.018)" fill="#ff7364" opacity="0.1"/>
      <rect id="Rectangle_90" data-name="Rectangle 90" width="40.601" height="3.457" transform="translate(124.402 135.12)" fill="#ff7364" opacity="0.1"/>
      <rect id="Rectangle_91" data-name="Rectangle 91" width="40.601" height="5.559" transform="translate(124.402 149.908)" fill="#ff7364" opacity="0.1"/>
      <path id="Path_145" data-name="Path 145" d="M504.743,612.062v5.559H472.986q-2.074-1.579-4.086-3.243c-.933-.767-1.855-1.554-2.791-2.316Z" transform="translate(-339.74 -445.264)" fill="#ff7364" opacity="0.1"/>
      <path id="Path_146" data-name="Path 146" d="M566.64,672.156v5.573h-3.353q-5.657-2.552-11.084-5.562Z" transform="translate(-401.636 -488.471)" fill="#ff7364" opacity="0.1"/>
      <rect id="Rectangle_92" data-name="Rectangle 92" width="7.993" height="7.993" transform="translate(235.481 98.811)" fill="#ff7364" opacity="0.1"/>
      <rect id="Rectangle_93" data-name="Rectangle 93" width="7.993" height="7.993" transform="translate(62.426 61.571)" fill="#ff7364" opacity="0.1"/>
      <rect id="Rectangle_94" data-name="Rectangle 94" width="7.993" height="7.993" transform="translate(62.426 80.136)" fill="#ff7364" opacity="0.1"/>
      <rect id="Rectangle_95" data-name="Rectangle 95" width="7.993" height="7.993" transform="translate(62.426 98.701)" fill="#ff7364" opacity="0.1"/>
      <rect id="Rectangle_96" data-name="Rectangle 96" width="7.993" height="7.993" transform="translate(62.426 117.263)" fill="#ff7364" opacity="0.1"/>
      <rect id="Rectangle_97" data-name="Rectangle 97" width="7.993" height="7.993" transform="translate(62.426 135.828)" fill="#ff7364" opacity="0.1"/>
      <rect id="Rectangle_98" data-name="Rectangle 98" width="7.993" height="7.993" transform="translate(62.426 154.393)" fill="#ff7364" opacity="0.1"/>
      <rect id="Rectangle_99" data-name="Rectangle 99" width="7.993" height="7.993" transform="translate(265.993 98.811)" fill="#ff7364" opacity="0.1"/>
      <rect id="Rectangle_100" data-name="Rectangle 100" width="7.993" height="7.993" transform="translate(235.481 118.525)" fill="#ff7364" opacity="0.1"/>
      <rect id="Rectangle_101" data-name="Rectangle 101" width="7.993" height="7.993" transform="translate(265.993 118.525)" fill="#ff7364" opacity="0.1"/>
      <rect id="Rectangle_102" data-name="Rectangle 102" width="7.993" height="7.993" transform="translate(235.481 138.237)" fill="#ff7364" opacity="0.1"/>
      <rect id="Rectangle_103" data-name="Rectangle 103" width="7.993" height="7.993" transform="translate(265.993 138.237)" fill="#ff7364" opacity="0.1"/>
      <rect id="Rectangle_104" data-name="Rectangle 104" width="7.993" height="7.993" transform="translate(235.481 157.951)" fill="#ff7364" opacity="0.1"/>
      <rect id="Rectangle_105" data-name="Rectangle 105" width="7.993" height="7.993" transform="translate(265.993 157.951)" fill="#ff7364" opacity="0.1"/>
      <rect id="Rectangle_106" data-name="Rectangle 106" width="7.993" height="7.993" transform="translate(235.481 177.666)" fill="#ff7364" opacity="0.1"/>
      <rect id="Rectangle_107" data-name="Rectangle 107" width="7.993" height="7.993" transform="translate(265.993 177.666)" fill="#ff7364" opacity="0.1"/>
      <path id="Path_147" data-name="Path 147" d="M838.406,707.5v-5.154h7.99v4.421Z" transform="translate(-602.925 -504.966)" fill="#ff7364" opacity="0.1"/>
      <path id="Path_148" data-name="Path 148" d="M96.527,316.906v4.572h27.35v-4.572Zm2.723,4.286H97v-4h2.248Zm2.723,0H99.726v-4h2.248Zm2.718,0h-2.248v-4h2.248Zm2.723,0h-2.248v-4h2.248Zm2.72,0h-2.248v-4h2.248Zm2.723,0H110.61v-4h2.248Zm2.723,0h-2.248v-4h2.248Zm2.72,0h-2.248v-4H118.3Zm2.72,0h-2.248v-4h2.248Zm2.723,0H121.5v-4h2.248Z" transform="translate(-74.019 -233.061)" fill="#ff7364" opacity="0.1"/>
      <path id="Path_149" data-name="Path 149" d="M96.527,364.281v4.572h27.35v-4.572Zm2.723,4.286H97v-4h2.248Zm2.723,0H99.726v-4h2.248Zm2.718,0h-2.248v-4h2.248Zm2.723,0h-2.248v-4h2.248Zm2.72,0h-2.248v-4h2.248Zm2.723,0H110.61v-4h2.248Zm2.723,0h-2.248v-4h2.248Zm2.72,0h-2.248v-4H118.3Zm2.72,0h-2.248v-4h2.248Zm2.723,0H121.5v-4h2.248Z" transform="translate(-74.019 -267.126)" fill="#ff7364" opacity="0.1"/>
      <path id="Path_150" data-name="Path 150" d="M96.527,411.641v4.57h27.35v-4.57Zm2.723,4.28H97v-4h2.248Zm2.723,0H99.726v-4h2.248Zm2.718,0h-2.248v-4h2.248Zm2.723,0h-2.248v-4h2.248Zm2.72,0h-2.248v-4h2.248Zm2.723,0H110.61v-4h2.248Zm2.723,0h-2.248v-4h2.248Zm2.72,0h-2.248v-4H118.3Zm2.72,0h-2.248v-4h2.248Zm2.723,0H121.5v-4h2.248Z" transform="translate(-74.019 -301.173)" fill="#ff7364" opacity="0.1"/>
      <path id="Path_151" data-name="Path 151" d="M96.527,459v4.57h27.35V459Zm2.723,4.283H97v-4h2.248Zm2.723,0H99.726v-4h2.248Zm2.718,0h-2.248v-4h2.248Zm2.723,0h-2.248v-4h2.248Zm2.72,0h-2.248v-4h2.248Zm2.723,0H110.61v-4h2.248Zm2.723,0h-2.248v-4h2.248Zm2.72,0h-2.248v-4H118.3Zm2.72,0h-2.248v-4h2.248Zm2.723,0H121.5v-4h2.248Z" transform="translate(-74.019 -335.222)" fill="#ff7364" opacity="0.1"/>
      <path id="Path_152" data-name="Path 152" d="M97,506.344c.107.433.233.86.363,1.284v-.995h2.248v3.993H98.4a2.931,2.931,0,0,0,.11.281h25.72v-4.564Zm5.34,4.283h-2.248v-3.993h2.248Zm2.718,0H102.81v-3.993h2.248Zm2.723,0h-2.248v-3.993h2.248Zm2.72,0h-2.248v-3.993H110.5Zm2.723,0h-2.248v-3.993h2.248Zm2.723,0H113.7v-3.993h2.248Zm2.72,0h-2.248v-3.993h2.248Zm2.72,0H119.14v-3.993h2.248Zm2.723,0h-2.248v-3.993h2.248Z" transform="translate(-74.36 -369.262)" fill="#ff7364" opacity="0.1"/>
      <path id="Path_153" data-name="Path 153" d="M119.543,553.7c.073.09.141.191.211.281h1.487V555.9l.481.562v-2.493h2.248V558h-.925c.09.093.177.191.281.281h17.1V553.7ZM126.7,558h-2.25v-4.01h2.25Zm2.723,0h-2.248v-4.01h2.248Zm2.723,0H129.9v-4.01h2.248Zm2.72,0h-2.248v-4.01h2.248Zm2.72,0h-2.248v-4.01h2.248Zm2.723,0H138.06v-4.01h2.248Z" transform="translate(-90.568 -403.312)" fill="#ff7364" opacity="0.1"/>
      <path id="Path_154" data-name="Path 154" d="M172.93,601.062c.259.146.52.281.781.424v-.141h2.248v1.267c.163.07.318.146.478.219v-1.487h2.248v2.434a.913.913,0,0,0,.132.048v-2.765Z" transform="translate(-128.951 -437.361)" fill="#ff7364" opacity="0.1"/>
      <path id="Path_155" data-name="Path 155" d="M398.744,244.806ZM381.432,327.753Zm-18.062-42.2c.053.18.1.36.149.537h0c-.042-.18-.092-.36-.148-.539ZM398.744,244.809ZM229,202.724v1.2h12.554v-1.2ZM381.435,327.753Zm-18.065-42.2c.053.18.1.36.149.537h0c-.042-.18-.092-.36-.148-.539ZM398.744,244.809ZM381.432,327.756Zm-18.062-42.2c.053.18.1.36.149.537h0c-.042-.183-.092-.363-.148-.542Z" transform="translate(-169.263 -150.964)" fill="#ff7364" opacity="0.1"/>
    </g>
    <g id="Woman" transform="translate(-14.835 -61.46)">
      <ellipse id="Ellipse_17" data-name="Ellipse 17" cx="38.241" cy="6.142" rx="38.241" ry="6.142" transform="translate(96.125 291.485)" fill="#6c63ff" opacity="0.1"/>
      <path id="Path_156" data-name="Path 156" d="M462.553,339.173a.208.208,0,0,0-.059-.1c-.585-.577-8.041-11.122-8.041-11.122s-.392-1.177-1.028-2.708a2.691,2.691,0,0,0,.451-.883,3.032,3.032,0,0,0,.074-.419c0-.043.031-.078.043-.122a2.979,2.979,0,0,0-.039-1.617,2.8,2.8,0,0,1-.161.392,6.564,6.564,0,0,0-.588-1.311c-.989-1.7-2.4-3.139-3.442-4.8a12.988,12.988,0,0,1-1.769-8.618v.464a13.412,13.412,0,0,1,.236-1.767,12.252,12.252,0,0,1,.655-1.938c.934-2.139,2.445-4,3.363-6.145a11.642,11.642,0,0,0,.7-2.248,12.6,12.6,0,0,0,.349-3.944,6.285,6.285,0,0,1-.1.938,12.773,12.773,0,0,0-3.607-8.5c-3.212-3.222-7.811-4.469-12.214-5.133a11.191,11.191,0,0,1-5.142-1.955,8.938,8.938,0,0,0-5.855-1.117,9.658,9.658,0,0,0-5.962,2.948c-2.095,2.3-3,5.557-5.446,7.5a24.147,24.147,0,0,1-5.079,2.528,6.8,6.8,0,0,0-3.91,3.681v.063l-.024.063c-.573,2.033.533,4.1,1.117,6.131a24.841,24.841,0,0,1,.672,6.488c.043,2.653.082,5.307.039,7.96-.02,1.045-.054,2.095-.14,3.139a16.471,16.471,0,0,0-2.7,1.084,53.414,53.414,0,0,0-4.169,4.125L394.35,346.8l.087.1-.087.334.325-.074a33.11,33.11,0,0,0,6.564,5.518l.279,4.819a8.567,8.567,0,0,0,4.776,6.833c.1,1.676.419,8.481-1.052,11.172a12.559,12.559,0,0,0-1.389,6.389,21.73,21.73,0,0,1-.071,6.239,10.2,10.2,0,0,0-.074,4.379h0V393.8c0,4.353.052,18.294,0,19.878-.074,1.864,0,29.435,0,29.435s-.364,13.779-1.536,17.512-.876,16.09-.876,16.09-.735,14.722,1.86,17.625c0,.13-.024.263-.028.392v.184c-.031,1.117.184,2.307,1.147,2.673a16.423,16.423,0,0,1,5.047,3.662,9.157,9.157,0,0,0,7.065,1.829,53.169,53.169,0,0,1,7.022-.321h0s1.468-.267.993-2.095h0a16.337,16.337,0,0,0-2.268-4.039c.149.039.295.071.431.1l.14.028h.11a1.478,1.478,0,0,0,.18,0h.078a1.335,1.335,0,0,0,.219,0h0A9.848,9.848,0,0,1,428.6,499.5c.655,1.13,2.967,1.99,4.709,2.205a33.459,33.459,0,0,0,5.844-.369,21.52,21.52,0,0,0,3.273-.6c.518-.2.628-.824.479-1.536h0a3.983,3.983,0,0,0-1.357-2.292,11.019,11.019,0,0,1-2.095-2.614l-.165-.263c1.095-1.045,3.072-4.459,3.673-5.167.73-.859-1.177-32.291-1.177-32.291V440.823l2.924-14.913,2.044-7.893,1.754-11.915s3.072-13.916,2.123-15.282h0c0-.028-.785-14.356-1.609-17.8a39.018,39.018,0,0,1-.054-8.348,1.648,1.648,0,0,0,.392-1.719,3.577,3.577,0,0,0-.228-.585v-.18a27.028,27.028,0,0,1,5.286-1.8c2.924-.573,2.194-2.081,2.194-2.081s.659-1.292,1.095-2.079.074-7.75,0-8.324c-.028-.232-.208-1.511-.419-2.963.938-.668,2.159-1.5,3.491-2.28C463.33,341.165,462.761,339.585,462.553,339.173Zm-38.148,99.494s-2.194,5.6-1.314,7.029-.14,6.751-.14,6.751l-.735,7.893s-2.044,14.639-1.314,18.08a122.447,122.447,0,0,1,.852,14.128h0a1,1,0,0,0-.14.071l-.1.05c.338-1.322.2-4-1.479-9.384l-.14-22.24s-.26-25.7,1.769-28.564a21.619,21.619,0,0,0,2.747-7.75s-.44,7.037-.726,8.9A14.673,14.673,0,0,0,424.405,438.667Zm-4.086,55.281c-.02.048-.043.094-.059.14l-.11-.14a1.158,1.158,0,0,0,.17,0Z" transform="translate(-284.161 -203.953)" fill="url(#linear-gradient)"/>
      <path id="Path_157" data-name="Path 157" d="M483.3,839.769a38.975,38.975,0,0,1-9,.969c-1.719-.208-4-1.08-4.643-2.218a9.538,9.538,0,0,0-5.251-2.747,3.527,3.527,0,0,1-1.177-.165,14.49,14.49,0,0,1-1.955-.754,3.644,3.644,0,0,1,.043-1.491,2.459,2.459,0,0,1,.087-.291,2.6,2.6,0,0,1,1.318-1.468l.14-.067a3.994,3.994,0,0,1,.848-.258c3.085-.592,15.812.6,15.812.6s.358.64.848,1.433a10.951,10.951,0,0,0,2.072,2.63,4.022,4.022,0,0,1,1.338,2.307C483.916,838.941,483.806,839.578,483.3,839.769Z" transform="translate(-324.762 -540.954)" fill="#fff"/>
      <path id="Path_158" data-name="Path 158" d="M483.3,841.461a38.954,38.954,0,0,1-9,.969c-1.719-.208-4-1.084-4.646-2.218a9.567,9.567,0,0,0-5.247-2.747,9.089,9.089,0,0,1-3.139-.919,3.254,3.254,0,0,1,.644-2.641l1.955,1.4s5.251,1.628,6.224,3.139a6.322,6.322,0,0,0,5.307,2.514,49.68,49.68,0,0,0,8.379-.993C483.917,840.633,483.811,841.268,483.3,841.461Z" transform="translate(-324.763 -542.644)" opacity="0.1"/>
      <path id="Path_159" data-name="Path 159" d="M438.608,841.985a52.27,52.27,0,0,0-6.931.325,8.923,8.923,0,0,1-6.982-1.841,16.383,16.383,0,0,0-4.98-3.69c-.954-.369-1.177-1.57-1.134-2.692V833.9a10.993,10.993,0,0,1,.314-2.107l15.271-.325,1.322,1.793.2.279.8,1.095s.364.479.838,1.177a16.759,16.759,0,0,1,2.234,4.066h0C440.057,841.716,438.608,841.985,438.608,841.985Z" transform="translate(-298.861 -541.164)" fill="#fff"/>
      <path id="Path_160" data-name="Path 160" d="M438.61,846.076a52.28,52.28,0,0,0-6.931.325,8.914,8.914,0,0,1-6.983-1.841,15.917,15.917,0,0,0-4.984-3.681c-.954-.369-1.177-1.57-1.134-2.693a8.715,8.715,0,0,1,4.282,2.04c1.177,1.515,3.285,4.062,6.284,4.223,2.417.13,8.3-.3,10.462-.475C440.061,845.809,438.61,846.076,438.61,846.076Z" transform="translate(-298.863 -545.258)" opacity="0.1"/>
      <path id="Path_161" data-name="Path 161" d="M436.769,831.81c-.176,1.311-.722,1.664-1.117,1.743a.753.753,0,0,1-.29,0,.946.946,0,0,1-.154-.024s-13.712,3.03-16.479.577a1.954,1.954,0,0,1-.2-.2,10.993,10.993,0,0,1,.314-2.107l15.271-.325,1.322,1.793a2.593,2.593,0,0,1,1.318-1.468Z" transform="translate(-298.838 -541.172)" opacity="0.1"/>
      <path id="Path_162" data-name="Path 162" d="M482.873,833.244c-.306.338-.559.529-.722.464-.722-.29-6.64-1.3-8.519-.432s-8.239.14-8.239.14,0-.754-.035-1.962a3.988,3.988,0,0,1,.848-.258c3.085-.592,15.813.6,15.813.6S482.392,832.451,482.873,833.244Z" transform="translate(-327.289 -540.902)" opacity="0.1"/>
      <path id="Path_163" data-name="Path 163" d="M460.458,579.152l-1.734,11.986-2.017,7.943L453.819,614.1v15.895s1.875,31.625,1.153,32.488-3.466,5.781-4.189,5.5-6.64-1.3-8.519-.436-8.239.14-8.239.14-.14-12.272-.867-15.737,1.3-18.195,1.3-18.195l.722-7.939s1.012-5.346.14-6.79,1.3-7.065,1.3-7.065a14.787,14.787,0,0,1-.718-5.059c.29-1.876.718-8.951.718-8.951a22.074,22.074,0,0,1-2.723,7.8c-2.005,2.884-1.75,28.736-1.75,28.736l.14,22.37c3.614,11.845,0,10.687,0,10.687s-13.712,3.033-16.479.577-1.977-17.92-1.977-17.92-.279-12.418.867-16.169,1.519-17.618,1.519-17.618-.074-27.727,0-29.606c.054-1.57,0-15.624,0-20.016v-1.3l1.656-4.113,19.623-2.456h9.387s14.128,3.321,15.589,4.748a.323.323,0,0,1,.078.087C463.491,565.149,460.458,579.152,460.458,579.152Z" transform="translate(-295.912 -375.585)" fill="#6c63ff"/>
      <path id="Path_164" data-name="Path 164" d="M472.109,770.875s4.316,10.4,6.354,11.119S472.109,770.875,472.109,770.875Z" transform="translate(-331.39 -504.351)" opacity="0.1"/>
      <path id="Path_165" data-name="Path 165" d="M476.187,809.906s14.577.722,14.431,2.311S476.187,809.906,476.187,809.906Z" transform="translate(-333.87 -528.076)" opacity="0.1"/>
      <path id="Path_166" data-name="Path 166" d="M426.484,799.313c.577.546,11.119,1.57,10.252,2.567s-9.384,2.932-9.384,2.932Z" transform="translate(-303.669 -521.638)" opacity="0.1"/>
      <path id="Path_167" data-name="Path 167" d="M422.078,753.594c0,.432,2.166,13.862,2.747,14.438s5.342,1.153,5.342,1.153Z" transform="translate(-300.994 -493.854)" opacity="0.1"/>
      <path id="Path_168" data-name="Path 168" d="M438.727,281.12c-2.068,2.311-2.963,5.586-5.372,7.541a23.816,23.816,0,0,1-5.019,2.539,6.672,6.672,0,0,0-3.9,3.835c-.559,2.04.526,4.125,1.1,6.166a25.522,25.522,0,0,1,.663,6.527c.039,2.673.082,5.346.035,8.019-.071,4.164-.419,8.519-2.625,12.049,7.978,2.539,16.463,2.885,24.831,3.212a25.051,25.051,0,0,0,4.823-.122,41.4,41.4,0,0,0,4.108-1.04,31.506,31.506,0,0,1,8.186-1.047,13.745,13.745,0,0,0,3.595-.239,3.547,3.547,0,0,0,2.595-2.28,4.236,4.236,0,0,0-.663-3.093c-.978-1.711-2.354-3.139-3.4-4.828a13.267,13.267,0,0,1-.852-11.927c.926-2.155,2.417-4.03,3.328-6.189a13.053,13.053,0,0,0-2.63-13.846c-3.167-3.241-7.711-4.5-12.06-5.167a10.954,10.954,0,0,1-5.079-1.955,8.693,8.693,0,0,0-5.784-1.117,9.441,9.441,0,0,0-5.884,2.975Z" transform="translate(-301.924 -204.95)" fill="#3f3d56"/>
      <g id="Group_240" data-name="Group 240" transform="translate(121.85 89.066)" opacity="0.1">
        <path id="Path_169" data-name="Path 169" d="M532.463,328.853a13.059,13.059,0,0,0-1,5.992,12.829,12.829,0,0,1,1-4.254c.923-2.155,2.413-4.03,3.324-6.189a12.526,12.526,0,0,0,.915-5.7,12.21,12.21,0,0,1-.915,3.963C534.879,324.825,533.385,326.7,532.463,328.853Z" transform="translate(-489.28 -318.703)"/>
        <path id="Path_170" data-name="Path 170" d="M427.549,333.225c.024,1.536.047,3.081.052,4.62q0-3.178-.052-6.35a25.472,25.472,0,0,0-.663-6.53,32.338,32.338,0,0,1-1.177-4.058c-.349,1.923.644,3.874,1.177,5.793a25.351,25.351,0,0,1,.663,6.526Z" transform="translate(-425.005 -320.047)"/>
        <path id="Path_171" data-name="Path 171" d="M469.535,397.611a13.266,13.266,0,0,1-3.59.239,31.485,31.485,0,0,0-8.183,1.028,41.689,41.689,0,0,1-4.108,1.036,24.783,24.783,0,0,1-4.828.126c-8.084-.318-16.283-.659-24.02-2.97a13.287,13.287,0,0,1-.785,1.491c7.978,2.535,16.463,2.885,24.827,3.212a24.792,24.792,0,0,0,4.828-.126,40.634,40.634,0,0,0,4.093-1.032,31.478,31.478,0,0,1,8.167-1.04,13.551,13.551,0,0,0,3.59-.243,3.55,3.55,0,0,0,2.595-2.276,3.115,3.115,0,0,0-.039-1.633A3.664,3.664,0,0,1,469.535,397.611Z" transform="translate(-424.021 -365.316)"/>
      </g>
      <path id="Path_172" data-name="Path 172" d="M468.8,353.4c-.29.651-1.515,6.284-1.806,6.857s-1.876,9.812-2.021,10.334-10.451-2.166-10.451-2.166l-6.21-5.2-6.378-6.346s-.189-5.726,4.509-7.562a7.175,7.175,0,0,1,.978-.306c5.7-1.37,5.125-18.7,5.125-18.7l11.7,5.051s-2.166,10.109-2.095,12.06c.02.655.533,1.064,1.205,1.311a9.524,9.524,0,0,0,3.2.345S469.089,352.757,468.8,353.4Z" transform="translate(-313.059 -236.693)" fill="#fbbebe"/>
      <path id="Path_173" data-name="Path 173" d="M539.825,436.193l1.66.436s1.229,1.868-1.66,3.607a50.024,50.024,0,0,0-5.27,3.685l-8.535,2.6-1.644-5.167,7.943-6.029Z" transform="translate(-363.148 -300.496)" fill="#6c63ff"/>
      <path id="Path_174" data-name="Path 174" d="M539.825,436.193l1.66.436s1.229,1.868-1.66,3.607a50.024,50.024,0,0,0-5.27,3.685l-8.535,2.6-1.644-5.167,7.943-6.029Z" transform="translate(-363.148 -300.496)" opacity="0.1"/>
      <path id="Path_175" data-name="Path 175" d="M399.867,448.783l-3.321,3.25s5.99,6.931,10.6,7.362,7.579-5.27,7.579-5.27l-3.987-6.284Z" transform="translate(-285.486 -308.101)" fill="#6c63ff"/>
      <path id="Path_176" data-name="Path 176" d="M399.867,448.783l-3.321,3.25s5.99,6.931,10.6,7.362,7.579-5.27,7.579-5.27l-3.987-6.284Z" transform="translate(-285.486 -308.101)" opacity="0.1"/>
      <circle id="Ellipse_18" data-name="Ellipse 18" cx="11.55" cy="11.55" r="11.55" transform="translate(134.369 81.842)" opacity="0.1"/>
      <circle id="Ellipse_19" data-name="Ellipse 19" cx="11.55" cy="11.55" r="11.55" transform="translate(134.369 80.973)" fill="#fbbebe"/>
      <path id="Path_177" data-name="Path 177" d="M466.424,565.091a37.286,37.286,0,0,0-7.728,1.73c-4.317,1.437-38.146.024-38.618,0v-1.3l1.656-4.113,19.623-2.456h9.387s14.128,3.321,15.589,4.748C466.393,564.57,466.424,565.091,466.424,565.091Z" transform="translate(-299.783 -375.602)" opacity="0.1"/>
      <path id="Path_178" data-name="Path 178" d="M468.8,381.935c-.29.652-1.515,6.284-1.806,6.857s-1.876,9.812-2.021,10.334-10.451-2.166-10.451-2.166l-6.2-5.2-6.378-6.346s-.189-5.726,4.509-7.562l11.663,13.406,5.251-13.991a9.527,9.527,0,0,0,3.2.345S469.088,381.288,468.8,381.935Z" transform="translate(-313.058 -265.224)" opacity="0.1"/>
      <path id="Path_179" data-name="Path 179" d="M440.34,390.742,428.4,377.007a5,5,0,0,0-4.737-.349c-2.673,1.158-5.992,2.095-6.861,2.673a53.476,53.476,0,0,0-4.117,4.148l9.678,25.317L418.1,425.47s.652,8.519-1.008,11.624a12.76,12.76,0,0,0-1.374,6.424,22.306,22.306,0,0,1-.071,6.284,10.461,10.461,0,0,0-.074,4.4s34.3,1.444,38.625,0a36.953,36.953,0,0,1,7.728-1.73s-.785-14.442-1.57-17.909.651-16.675.651-16.675l-.938-14.152,5.628-14.523s-3.05-9.309-6.228-10.247a61.732,61.732,0,0,1-7-2.021,24.543,24.543,0,0,0-4.839-1.229l-1.9.635Z" transform="translate(-295.288 -264.279)" fill="#6c63ff"/>
      <rect id="Rectangle_108" data-name="Rectangle 108" width="27.488" height="42.064" rx="2.94" transform="translate(135.438 137.194) rotate(3.89)" opacity="0.1"/>
      <rect id="Rectangle_109" data-name="Rectangle 109" width="27.488" height="42.064" rx="2.94" transform="translate(136.302 136.333) rotate(3.89)" fill="#3f3d56"/>
      <rect id="Rectangle_110" data-name="Rectangle 110" width="23.948" height="36.193" transform="translate(137.853 139.603) rotate(3.89)" fill="#fff"/>
      <rect id="Rectangle_111" data-name="Rectangle 111" width="19.565" height="5.453" transform="translate(140.086 149.078) rotate(4.004)" opacity="0.1"/>
      <rect id="Rectangle_112" data-name="Rectangle 112" width="3.104" height="2.842" transform="translate(155.801 171.851) rotate(3.89)" opacity="0.1"/>
      <rect id="Rectangle_113" data-name="Rectangle 113" width="15.891" height="2.842" transform="translate(139.989 164.142) rotate(3.89)" opacity="0.1"/>
      <rect id="Rectangle_114" data-name="Rectangle 114" width="16.546" height="4.368" transform="translate(142.282 138.756) rotate(3.89)" fill="#3f3d56"/>
      <rect id="Rectangle_115" data-name="Rectangle 115" width="16.546" height="4.368" transform="translate(142.282 138.756) rotate(3.89)" opacity="0.1"/>
      <path id="Path_180" data-name="Path 180" d="M477.886,572.562s-.14,21.366-5.777,33.646c0,0,6.79-16.173,6.79-16.821s3.752-7.438,2.747-9.458S477.886,572.562,477.886,572.562Z" transform="translate(-331.39 -383.871)" opacity="0.1"/>
      <path id="Path_181" data-name="Path 181" d="M466.1,301.36a8.034,8.034,0,0,1,1.307-5.381,6.629,6.629,0,0,0,5.125,6.982.867.867,0,0,1-.247-.95,29.042,29.042,0,0,0,2.331,2.793,3.1,3.1,0,0,0,3.352.711c1.457-.785,1.472-2.853,1.095-4.469a20.957,20.957,0,0,0-4.824-9.217,6.382,6.382,0,0,0-5.062-2.575,12.454,12.454,0,0,0-6.543,1.024,17.393,17.393,0,0,0-3.139,2.194l-5.5,4.481a5.215,5.215,0,0,0-1.334,1.4,3.848,3.848,0,0,0-.419,1.472,7.932,7.932,0,0,0,3.7,7.484,5.851,5.851,0,0,1,3.505-5.494,1.522,1.522,0,0,1,.546,1.134l1.158-2.064a2.273,2.273,0,0,1,.785-.93,2.048,2.048,0,0,1,2.213.624,3.953,3.953,0,0,0,2.018,1.331l.031-3.072" transform="translate(-319.295 -211.727)" opacity="0.1"/>
      <path id="Path_182" data-name="Path 182" d="M466.132,300.27a8.037,8.037,0,0,1,1.307-5.385,6.632,6.632,0,0,0,5.129,6.982.859.859,0,0,1-.247-.945,29.506,29.506,0,0,0,2.331,2.793,3.082,3.082,0,0,0,3.352.707c1.457-.785,1.472-2.853,1.095-4.459a20.959,20.959,0,0,0-4.824-9.217,7.721,7.721,0,0,0-2.7-2.095,7.853,7.853,0,0,0-2.354-.479,12.452,12.452,0,0,0-6.543,1.021,17.615,17.615,0,0,0-3.139,2.2l-5.494,4.481a5.167,5.167,0,0,0-1.335,1.4,3.829,3.829,0,0,0-.419,1.472,7.928,7.928,0,0,0,3.7,7.479,5.865,5.865,0,0,1,3.505-5.494,1.536,1.536,0,0,1,.546,1.134l1.154-2.057a2.249,2.249,0,0,1,.785-.93,2.05,2.05,0,0,1,2.213.624,3.976,3.976,0,0,0,2.017,1.331l.032-3.072" transform="translate(-319.33 -211.066)" fill="#3f3d56"/>
      <path id="Path_183" data-name="Path 183" d="M447.569,470.133c-1.008-.51-17.688,2.095-17.688,2.095a95.433,95.433,0,0,0-9.387-1.875,8.419,8.419,0,0,1-7.065-7.583l-.726-12.987,2.234-1.955,9.6,6.284a31.015,31.015,0,0,1,0,3.748,5.288,5.288,0,0,0-.321,1.177.393.393,0,0,0,.321.353c.651.165,9.528,1.6,9.528,1.6s20.577-1.409,25.707,5.522a5.212,5.212,0,0,1,.906,1.711C461.957,472.936,448.484,470.581,447.569,470.133Z" transform="translate(-295.296 -308.074)" fill="#fbbebe"/>
      <path id="Path_184" data-name="Path 184" d="M478.077,485.625c-.785.349-1.272.6-1.272.6s-7.362-.216-11.5-1.715a27.015,27.015,0,0,0-9.164-1.232s-17.237-2.967-14.564-6.843a.392.392,0,0,0,.321.353c.652.165,9.53,1.6,9.53,1.6s20.577-1.409,25.707,5.522a5.214,5.214,0,0,1,.941,1.712Z" transform="translate(-312.675 -325.472)" opacity="0.1"/>
      <path id="Path_185" data-name="Path 185" d="M485.249,441.594s1.012,7.147,1.084,7.728.436,7.579,0,8.379-1.084,2.095-1.084,2.095.722,1.515-2.166,2.095A29.641,29.641,0,0,0,476.8,464.2s-7.366-.216-11.479-1.73a26.5,26.5,0,0,0-9.168-1.229s-21.88-3.757-12.492-8.34a14.447,14.447,0,0,1,16.027,1.626l10.474-.648s3.9-2.387,4.984-2.166a4.008,4.008,0,0,0,2.234-.362l.074-7.583Z" transform="translate(-312.688 -304.306)" fill="#fbbebe"/>
      <path id="Path_186" data-name="Path 186" d="M404.93,396.7l-2.095-.11-6.351,24.728s6.857-1.734,9.812,0,8.379,2.095,8.379,2.095l-2.021-19.71Z" transform="translate(-285.446 -276.96)" opacity="0.1"/>
      <path id="Path_187" data-name="Path 187" d="M404.93,395.594l-2.095-.11-6.35,24.718s6.857-1.734,9.812,0,8.379,2.095,8.379,2.095l-2.021-19.709Z" transform="translate(-285.445 -276.285)" fill="#6c63ff"/>
      <path id="Path_188" data-name="Path 188" d="M533.215,409.578l2.885.652s7.367,10.6,7.943,11.189-2.747,2.747-4.117,2.747-8.084.785-10.035,2.6-1.138-7.312-1.138-7.52,2.422-5.966,2.422-5.966Z" transform="translate(-365.711 -284.853)" opacity="0.1"/>
      <path id="Path_189" data-name="Path 189" d="M533.215,408.469l2.885.648s7.367,10.613,7.943,11.193-2.747,2.747-4.117,2.747-8.084.785-10.035,2.6-1.138-7.312-1.138-7.52,2.437-5.985,2.437-5.985Z" transform="translate(-365.711 -284.176)" fill="#6c63ff"/>
      <g id="Group_241" data-name="Group 241" transform="translate(132.925 82.952)" opacity="0.1">
        <path id="Path_190" data-name="Path 190" d="M467.416,304.027a5.786,5.786,0,0,1,.02-.9,8.033,8.033,0,0,0-1.209,2.963v1.095c0,.635,0,1.275-.02,1.912h-.055v.295a1.577,1.577,0,0,0-.02-.3,4.175,4.175,0,0,1-1.931-1.311c-.585-.526-1.5-1.028-2.213-.624a2.248,2.248,0,0,0-.785.93l-1.166,2.057a1.518,1.518,0,0,0-.546-1.13,5.851,5.851,0,0,0-3.505,5.494,7.975,7.975,0,0,1-3.724-6.252,7.936,7.936,0,0,0,3.724,7.122,5.865,5.865,0,0,1,3.505-5.494,1.536,1.536,0,0,1,.546,1.134l1.153-2.057a2.249,2.249,0,0,1,.785-.93,2.049,2.049,0,0,1,2.213.624,3.976,3.976,0,0,0,2.016,1.331q0-1.507.031-3.007a7.994,7.994,0,0,1,1.177-2.933Z" transform="translate(-452.252 -303.125)"/>
        <path id="Path_191" data-name="Path 191" d="M487.487,312.6c.02-.267.052-.533.091-.785l.043-1.084a7.942,7.942,0,0,0-.14,1.869Z" transform="translate(-473.648 -307.748)"/>
        <path id="Path_192" data-name="Path 192" d="M508.989,322.029a3.09,3.09,0,0,1-3.352-.707,29.092,29.092,0,0,1-2.331-2.793.867.867,0,0,0,.247.95.923.923,0,0,1-.228-.059,25.93,25.93,0,0,0,2.311,2.747,3.115,3.115,0,0,0,3.351.707,3.212,3.212,0,0,0,1.284-3.222,2.725,2.725,0,0,1-1.283,2.374Z" transform="translate(-483.244 -312.492)"/>
        <path id="Path_193" data-name="Path 193" d="M495.773,311.738a6.672,6.672,0,0,1-4.888-5.832,6.629,6.629,0,0,0,5.142,6.762A.863.863,0,0,1,495.773,311.738Z" transform="translate(-475.71 -304.815)"/>
      </g>
    </g>
    <g id="Man" transform="translate(-24.861 -69.025)">
      <ellipse id="Ellipse_16" data-name="Ellipse 16" cx="38.28" cy="6.148" rx="38.28" ry="6.148" transform="translate(222.697 299.223)" fill="#6c63ff" opacity="0.1"/>
      <path id="Path_194" data-name="Path 194" d="M854.222,350.594s-1.547-.217-1.547-2.467a35.409,35.409,0,0,0-1.107-6.467h0s-.959-7.335-2.283-8.5-3.018-7.993-3.018-7.993a16.11,16.11,0,0,0-.884-4.5,38.242,38.242,0,0,1-2.578-5.536c-1.183-2.786-6.1-4.694-6.1-4.694s-8.914-5.172-11.441-6.85h0a3.918,3.918,0,0,1-.644-.486c-.44-.573-2.357-.586-2.357-.586a38.8,38.8,0,0,1-.456-4.039v-.419a13.593,13.593,0,0,0,5.976-7.393c.047-.15.087-.3.13-.456a1.277,1.277,0,0,0,.786-.692,13.82,13.82,0,0,1,.515-1.571,5.824,5.824,0,0,1,1.454-1.273,5.509,5.509,0,0,0,1.512-4.473c-.039-1.32-.251-2.648-.169-3.956a1.572,1.572,0,0,1,.024-.33c.024-.193.052-.393.087-.582.193-.979.612-1.894.849-2.86a3.678,3.678,0,0,0-.291-2.888c-.805-1.222-2.483-1.465-3.956-1.571-1.669-.14-3.143.039-4.231-1.348a14.822,14.822,0,0,0-1.678-2.027c-.219-.2-2.357-1.513-2.357-1.595a9.551,9.551,0,0,0-6.679-.514c-1.118.322-2.153.849-3.281,1.118-2.42.573-5.209-.048-7.269,1.339a8.581,8.581,0,0,0-2.478,3.253q-.786,1.5-1.6,3.006a19.343,19.343,0,0,0-2.118,5.143,8.707,8.707,0,0,0-.14,1.206h0v.625a2.158,2.158,0,0,0,.024.393,2.259,2.259,0,0,0,.028.243c.028.082.035.267.059.393s.071.349.117.519a.794.794,0,0,0,.071.219c.024.074.087.263.14.393s.054.14.087.2a3.676,3.676,0,0,0,.2.393c.031.052.054.1.087.154a4.483,4.483,0,0,0,.362.527c.839,1.048,2.079,1.717,2.993,2.7v.44a13.448,13.448,0,0,0,6.161,10.961c0,.15.02.3.028.456a22.389,22.389,0,0,1-.043,3.495,1.657,1.657,0,0,0-1.3-.581,1.867,1.867,0,0,0-.5.043l-.035-.028h0v.035c-.864.212-1.929,1.118-2.947,3.669,0,0-3.095,3.495-5.452,3.344s-8.325,3.635-8.325,3.635-5.822,3.774-7.072,7.626a53.328,53.328,0,0,1-2.516,6.4l-7.217,14.818h0L770.5,352.428a54.537,54.537,0,0,1,.59,6.031c-.14.8,3.021,7.991,3.021,7.991s10.462,18.378,14.737,19.32l.306-.212a2.679,2.679,0,0,0,.577.212l.881-.616a9.185,9.185,0,0,1-.071,2.07c-.586,1.817.224,13.659,1.258,15.981s.664,32.768.664,32.768l-.14,2.683a1.136,1.136,0,0,0,.035.236l-.035.636.106.055a7.6,7.6,0,0,1-.106,2.561,28.4,28.4,0,0,0-.519,4.505s-2.947,18.81-1.547,22.589,2.581,7.921,2.581,7.921,1.473,4.714.071,5.5-5.375,2.181-4.566,4.141c.746,1.817,3.579,6.679,4,7.389l-.035.393-.577,6.258a7.864,7.864,0,0,0,.664,2.389,4.108,4.108,0,0,0,4.194,2.624c.393-.028.839-.071,1.289-.13a55.828,55.828,0,0,0,9.542-2.487,3.756,3.756,0,0,1-.742-.616h0a2.158,2.158,0,0,1-.656-1.571c.063-1.143-2.07-6.57-2.6-7.908l-.122-.3s4.863-5.087,4.054-9.59c0,0-5.382-3.143-3.611-4.872a55.212,55.212,0,0,0,4.939-6.679s.14-18.524,0-21.285a22.941,22.941,0,0,1,.271-5.751c.059-.28.13-.559.2-.839a50.184,50.184,0,0,0,7.409.559q1.359,0,2.75-.055,0,.393.035.849c.2,4.588.586,12.638.9,15.629.44,4.282,2.871,15.836,2.871,15.836s-4.64,2.973.809,10.317a9.955,9.955,0,0,1-.362,3.045h0a33.308,33.308,0,0,0-.931,3.839,6.746,6.746,0,0,0,.047,3.5c.884,1.736,6.187,1.6,6.187,1.6h0a.845.845,0,0,1,.13-.02,7.569,7.569,0,0,1,5.614,1.69c2.016,1.619,9.661.911,13.806.393,1.623-.208,2.706-.393,2.706-.393a1.6,1.6,0,0,0,.054-.559h0c-.043-1.018-.839-3.249-6.247-5.241,0,0-5.083-3.418-5.013-6.4h-.7c.369-.011.629-.011.629-.011s-1.992-7.269-1.178-7.858-1.623-8.643-1.623-8.643-1.4-13.515-1.473-14.457a8.3,8.3,0,0,1,.369-2.4l-.369-7.409s-.071-2.463,0-3.264a15.37,15.37,0,0,0-.165-2.079c-.035-.28-.07-.559-.111-.839,1.905-.484,3.143-.927,3.143-.927l-.219-25.791c1.619-3.142,1.917-10.041,1.91-14.928,0-3.142-.14-5.469-.14-5.469l2.212-3.611s.51-4.321-.3-5.269a.907.907,0,0,1,.1-1.237,4.125,4.125,0,0,1,.495-.348.607.607,0,0,1-.05-.087,3.9,3.9,0,0,1,.49-.349s-.786-1.218-.082-1.732c.66.447,1.25.805,1.7,1.061-.031.28-.063.451-.063.451l.189-.393.7.393s3.465-6.9,3.39-7.916,2.357-5.3,2.357-5.3a5.312,5.312,0,0,1,1.623-3.2c1.328-.942,1.029-7.775,1.029-7.775a16.7,16.7,0,0,1,1.258-5.009C855.9,352.568,854.222,350.594,854.222,350.594Zm-66.3-3.029.067,1.647c-.393-.633-.675-1.085-.675-1.085Z" transform="translate(-558.584 -195.125)" fill="url(#linear-gradient)"/>
      <path id="Path_195" data-name="Path 195" d="M947.464,543.669l-.849,3.614s-6.8-3.477-8.018-7.877a4.99,4.99,0,0,1,2.047-6.078l6.337,2.68Z" transform="translate(-660.484 -358.563)" fill="#fff"/>
      <path id="Path_196" data-name="Path 196" d="M947.464,543.669l-.849,3.614s-6.8-3.477-8.018-7.877a4.99,4.99,0,0,1,2.047-6.078l6.337,2.68Z" transform="translate(-660.484 -358.563)" opacity="0.1"/>
      <path id="Path_197" data-name="Path 197" d="M840.693,850.668a48.837,48.837,0,0,1-10.607,2.6,4.036,4.036,0,0,1-4.121-2.609,7.961,7.961,0,0,1-.653-2.357l.57-6.226.3-3.312,9.182-2.389,1.3,3.98.122.3c.519,1.332,2.617,6.73,2.554,7.858a2.157,2.157,0,0,0,.64,1.571A3.654,3.654,0,0,0,840.693,850.668Z" transform="translate(-591.856 -542.553)" fill="#fff"/>
      <path id="Path_198" data-name="Path 198" d="M930.159,846.841a1.57,1.57,0,0,1-.055.559s-13.444,2.237-16.193,0a7.279,7.279,0,0,0-5.642-1.662s-5.2.14-6.07-1.571a6.8,6.8,0,0,1-.043-3.485,33.371,33.371,0,0,1,.911-3.819l.208-.165,1.237-.994L919,835.276h.11c-.071,2.962,4.915,6.36,4.915,6.36C929.332,843.608,930.118,845.827,930.159,846.841Z" transform="translate(-638.405 -541.894)" fill="#fff"/>
      <path id="Path_199" data-name="Path 199" d="M930.147,855.191a1.623,1.623,0,0,1-.059.559s-13.444,2.237-16.189,0a7.28,7.28,0,0,0-5.645-1.662s-5.206.14-6.074-1.571a6.865,6.865,0,0,1-.043-3.495c2,.2,5.172.7,6.408,1.894a14.294,14.294,0,0,0,7.009,3.76C917.092,854.783,926.25,855.074,930.147,855.191Z" transform="translate(-638.39 -550.244)" opacity="0.1"/>
      <path id="Path_200" data-name="Path 200" d="M841.728,871.82a48.845,48.845,0,0,1-10.607,2.6A4.035,4.035,0,0,1,827,871.812c1.6.538,3.822,1.1,4.989.586,1.383-.616,6.291-1.009,9.036-1.178a3.571,3.571,0,0,0,.7.6Z" transform="translate(-592.891 -563.706)" opacity="0.1"/>
      <path id="Path_201" data-name="Path 201" d="M872.064,362.434c-5.186-2.016-11.857-8.667-10.191-11.786a7.046,7.046,0,0,0,.649-2.5,22.8,22.8,0,0,0,.047-3.535,48.634,48.634,0,0,0-.7-5.755s16.189.365,15.247,2.75a8.851,8.851,0,0,0-.243,3.273c.078,1.356.271,2.9.475,4.194.28,1.78.559,3.142.559,3.142s-.994,1.387-1.571,1.461S879.505,365.322,872.064,362.434Z" transform="translate(-613.901 -240.493)" fill="#fbbebe"/>
      <path id="Path_202" data-name="Path 202" d="M837.652,840.589l-.122.14c-4.84-5.853-10.694,1.445-10.694,1.445l-.087-.157.3-3.312,9.182-2.389,1.3,3.98Z" transform="translate(-592.739 -542.51)" opacity="0.1"/>
      <path id="Path_203" data-name="Path 203" d="M920.831,835.678a9.314,9.314,0,0,0-5.421,1.595c-1.886,1.666-11,.358-10.607,0a1.357,1.357,0,0,0,.2-.6l1.237-.994,14.489-.428C920.788,835.525,920.831,835.678,920.831,835.678Z" transform="translate(-640.117 -541.876)" opacity="0.1"/>
      <path id="Path_204" data-name="Path 204" d="M837.472,707.321a11.036,11.036,0,0,0-.6,2.016,23.054,23.054,0,0,0-.271,5.72c.14,2.75,0,21.18,0,21.18a56.077,56.077,0,0,1-4.844,6.647c-1.736,1.732,3.535,4.844,3.535,4.844.786,4.483-3.976,9.542-3.976,9.542-4.839-5.853-10.694,1.441-10.694,1.441s-3.182-5.5-3.976-7.465,3.108-3.32,4.473-4.121-.071-5.5-.071-5.5-1.155-4.121-2.53-7.88,1.517-22.471,1.517-22.471a29.055,29.055,0,0,1,.506-4.486,7.6,7.6,0,0,0,.106-2.546c-.024-.28-.05-.523-.071-.688s-.035-.236-.035-.236l.055-.094,1.964-3.661S838.416,705.015,837.472,707.321Z" transform="translate(-586.537 -459.488)" fill="#6c63ff"/>
      <path id="Path_205" data-name="Path 205" d="M914.256,758.84a9.38,9.38,0,0,0-5.421,1.571c-1.886,1.645-11,.361-10.607,0s.358-3.033.358-3.033c-5.347-7.3-.786-10.265-.786-10.265s-2.385-11.491-2.817-15.753c-.3-2.973-.675-11-.876-15.545-.087-1.964-.14-3.32-.14-3.32l4.333-.86.559-.11,10.53-2.119s.291,1.964.488,3.572a15.715,15.715,0,0,1,.161,2.07c-.067.786,0,3.249,0,3.249l.362,7.37a8.5,8.5,0,0,0-.362,2.385c.075.942,1.445,14.383,1.445,14.383s2.385,8.023,1.571,8.6S914.256,758.84,914.256,758.84Z" transform="translate(-633.542 -465.47)" fill="#6c63ff"/>
      <path id="Path_206" data-name="Path 206" d="M877.529,341.641a8.843,8.843,0,0,0-.243,3.272,13.455,13.455,0,0,1-14.308-.267,48.583,48.583,0,0,0-.7-5.755S878.472,339.256,877.529,341.641Z" transform="translate(-614.31 -240.513)" opacity="0.1"/>
      <path id="Path_207" data-name="Path 207" d="M875.473,303.038a13.441,13.441,0,1,1-26.879.322v-.322a13.444,13.444,0,1,1,26.887,0Z" transform="translate(-606.003 -210.584)" fill="#fbbebe"/>
      <path id="Path_208" data-name="Path 208" d="M872.064,376.784c-5.186-2.016-11.857-8.667-10.191-11.786a7.043,7.043,0,0,0,.648-2.5l7.1,5.838,4.392,3.6,3.34-8.5c.28,1.78.559,3.142.559,3.142s-.994,1.387-1.571,1.461S879.505,379.672,872.064,376.784Z" transform="translate(-613.901 -254.842)" opacity="0.1"/>
      <path id="Path_209" data-name="Path 209" d="M866.934,383.1,861,482.689l-7.732.506L833.25,425.449l3.284-68.558.7-14.485,8.9,7.311,4.392,3.6,3.438-8.75,6.391,5.571Z" transform="translate(-590.412 -235.358)" fill="#6c63ff"/>
      <path id="Path_210" data-name="Path 210" d="M843.646,707.385a11.059,11.059,0,0,0-.6,2.016,56.967,56.967,0,0,1-16.224-5.069l-.106-.056.035-.632v-.33l1.964-3.661S844.586,705.078,843.646,707.385Z" transform="translate(-592.712 -459.552)" opacity="0.1"/>
      <path id="Path_211" data-name="Path 211" d="M898.39,718.764a39.879,39.879,0,0,1-4.345.5c-.087-1.957-.14-3.32-.14-3.32l4.353-.881Z" transform="translate(-633.504 -468.898)" opacity="0.1"/>
      <path id="Path_212" data-name="Path 212" d="M917.491,712.978a30.507,30.507,0,0,1-10.968,1.033l-.054-2.487,10.536-2.118S917.285,711.355,917.491,712.978Z" transform="translate(-641.135 -465.47)" opacity="0.1"/>
      <path id="Path_213" data-name="Path 213" d="M827.7,502.855c-16.107,2.75-30.859-5.135-30.859-5.135l.14-2.671s.365-30.286-.649-32.608-1.8-14.08-1.23-15.876-2.1-28.9-2.1-28.9l-.432-11-15.828-6.43,7.072-14.744a53.212,53.212,0,0,0,2.459-6.365c1.23-3.83,6.938-7.591,6.938-7.591s5.854-3.756,8.168-3.615,5.347-3.324,5.347-3.324c2.237-5.708,4.266-3.142,4.266-3.142a5.068,5.068,0,0,1-.11.839c-.786,6.265,12.706,26.067,12.9,26.42h0l1.3,31.3,1.3,39.6Z" transform="translate(-562.383 -253.857)" opacity="0.1"/>
      <path id="Path_214" data-name="Path 214" d="M826.557,502.878c-16.107,2.75-30.863-5.135-30.863-5.135l.14-2.671s.361-30.286-.653-32.608-1.8-14.092-1.226-15.9-2.105-28.891-2.105-28.891l-.436-11-15.824-6.43,7.072-14.744a54.135,54.135,0,0,0,2.459-6.36c1.23-3.819,6.958-7.582,6.958-7.582s5.853-3.756,8.164-3.615,5.358-3.32,5.358-3.32c2.237-5.708,4.714-3.142,4.714-3.142,0,.28-.236.393-.11.839,1.729,6.078,12.272,26.067,12.465,26.42h0l1.3,31.295,1.274,39.624Z" transform="translate(-561.671 -253.882)" fill="#fff"/>
      <path id="Path_215" data-name="Path 215" d="M871.337,391c-1.732-.723-10.9-11.2-10.9-11.2v-2.385c-.334-.786-2.322-.306-3.928.243l.692-14.485.786.653C859.692,369.9,871.148,390.648,871.337,391Z" transform="translate(-610.792 -255.256)" opacity="0.1"/>
      <path id="Path_216" data-name="Path 216" d="M872.436,388.818c-1.736-.727-10.914-11.2-10.914-11.2v-2.389c-.334-.786-2.318-.306-3.928.243L858.273,361l.786.649C860.791,367.71,872.243,388.461,872.436,388.818Z" transform="translate(-611.456 -253.937)" fill="#fff"/>
      <path id="Path_217" data-name="Path 217" d="M826.541,563.015c.217,0,11.2-1.155,11.2-1.155s6.651,13.082,6.215,16.26-1.226,6-3.9,5.5-14.4.393-14.4.393Z" transform="translate(-592.081 -375.886)" opacity="0.1"/>
      <path id="Path_218" data-name="Path 218" d="M825.415,560.811c.219,0,11.2-1.155,11.2-1.155s6.647,13.1,6.215,16.245-1.23,6-3.9,5.5-14.4.393-14.4.393Z" transform="translate(-591.392 -374.551)" fill="#fff"/>
      <path id="Path_219" data-name="Path 219" d="M838.539,547s10.08,5.421,10.3,7.072-5.13-.723-6.291-1.013a14.962,14.962,0,0,0-2.314-.362l-7.7.208Z" transform="translate(-596.24 -366.864)" fill="#fbbebe"/>
      <circle id="Ellipse_20" data-name="Ellipse 20" cx="1.061" cy="1.061" r="1.061" transform="translate(256.667 134.298)" opacity="0.1"/>
      <circle id="Ellipse_21" data-name="Ellipse 21" cx="1.061" cy="1.061" r="1.061" transform="translate(256.667 133.864)" fill="#3f3d56"/>
      <circle id="Ellipse_22" data-name="Ellipse 22" cx="1.061" cy="1.061" r="1.061" transform="translate(258.619 180.215)" opacity="0.1"/>
      <circle id="Ellipse_23" data-name="Ellipse 23" cx="1.061" cy="1.061" r="1.061" transform="translate(258.619 179.779)" fill="#3f3d56"/>
      <circle id="Ellipse_24" data-name="Ellipse 24" cx="1.061" cy="1.061" r="1.061" transform="translate(257.728 157.255)" opacity="0.1"/>
      <circle id="Ellipse_25" data-name="Ellipse 25" cx="1.061" cy="1.061" r="1.061" transform="translate(257.728 156.823)" fill="#3f3d56"/>
      <path id="Path_220" data-name="Path 220" d="M921.455,441.854s.723,1.085,0,1.571.071,1.736.071,1.736-1.8,1.053-1.009,2.007.291,5.241.291,5.241l-2.168,3.611s.13,2.314.14,5.441c0,4.879-.287,11.742-1.875,14.865l.213,25.657s-7.594,2.778-13.951,1.929l-.942-41.171s1.375-23.345,1.882-27.827a46.6,46.6,0,0,0,.362-7.012,78.258,78.258,0,0,0-.942-10.258s-.786-14.1-.864-18c-.035-1.866.063-7.311.173-12.489.122-5.661.259-11,.259-11l-1.434-11.35s1.434-.14,1.866.432a4.122,4.122,0,0,0,.629.484h0c2.479,1.677,11.224,6.82,11.224,6.82s4.84,1.925,6,4.683a40.774,40.774,0,0,0,2.526,5.5,16.974,16.974,0,0,1,.868,4.473s1.665,6.8,2.966,7.947,2.237,8.459,2.237,8.459l-11.491,9.036s-1.009,15.03-1.226,15.612S921.455,441.854,921.455,441.854Z" transform="translate(-638.215 -256.242)" fill="#fff"/>
      <path id="Path_221" data-name="Path 221" d="M921.872,441.634s.719,1.085,0,1.571.067,1.736.067,1.736-1.8,1.053-1.009,2.007.291,5.241.291,5.241l-2.157,3.618s.13,2.314.14,5.441c0,4.879-.286,11.742-1.875,14.865l.215,25.657s-7.594,2.778-13.95,1.929l-.939-41.171s1.371-23.345,1.882-27.827a46.187,46.187,0,0,0,.358-7.013,78.684,78.684,0,0,0-.939-10.258s-.786-14.1-.868-18c-.035-1.866.063-7.311.173-12.489.122-5.661.26-11,.26-11l-1.894-11.5s1.894,0,2.33.586a3.741,3.741,0,0,0,.629.484h0c2.474,1.678,11.22,6.82,11.22,6.82s4.828,1.925,6.011,4.683a43.552,43.552,0,0,0,2.526,5.5,16.965,16.965,0,0,1,.868,4.473s1.667,6.8,2.967,7.947,2.237,8.459,2.237,8.459l-11.489,9.035s-1.009,15.03-1.23,15.612S921.872,441.634,921.872,441.634Z" transform="translate(-638.197 -256.02)" fill="#fff"/>
      <path id="Path_222" data-name="Path 222" d="M908.776,380.615l1.042,3.025-5.464,5.5c.122-5.662.26-11,.26-11l-1.894-11.5s1.894,0,2.329.586a3.74,3.74,0,0,0,.629.484h0l4.644,13.392Z" transform="translate(-638.862 -257.361)" opacity="0.1"/>
      <path id="Path_223" data-name="Path 223" d="M907.651,378.388l1.042,3.021-5.46,5.5c.117-5.662.259-11,.259-11l-1.9-11.5s1.9,0,2.329.586a3.921,3.921,0,0,0,.629.484h0l4.67,13.4Z" transform="translate(-638.182 -256.004)" fill="#fff"/>
      <path id="Path_224" data-name="Path 224" d="M875.474,303.035a13.4,13.4,0,0,1-.66,4.169.559.559,0,0,1-.42-.1,17.383,17.383,0,0,0-3.984-9.685,10.264,10.264,0,0,0-2.161-2.237,4.232,4.232,0,0,0-2.936-.829c-1.178.161-2.22.963-3.41,1.065-1.571.13-2.978-.959-4.538-1.009a4.447,4.447,0,0,0-3.335,1.547,9.1,9.1,0,0,0-1.788,3.312,19.4,19.4,0,0,0-1,5.72c-.019,1.1-.126,2.478-1.148,2.88a5.853,5.853,0,0,0-1.482-4.473l-.024-.028v-.322a13.444,13.444,0,0,1,26.887,0Z" transform="translate(-606.003 -210.581)" opacity="0.1"/>
      <path id="Path_225" data-name="Path 225" d="M861.291,268.13a9.256,9.256,0,0,0-6.53-.51c-1.089.322-2.114.839-3.215,1.107-2.357.57-5.108-.048-7.129,1.332a8.51,8.51,0,0,0-2.428,3.238l-1.571,2.99a19.415,19.415,0,0,0-2.079,5.107,6.532,6.532,0,0,0,1,5.276c.829,1.053,2.063,1.717,2.966,2.71a5.893,5.893,0,0,1,1.477,4.49c1.022-.393,1.118-1.779,1.148-2.88a19.419,19.419,0,0,1,1-5.72,9.1,9.1,0,0,1,1.794-3.312,4.45,4.45,0,0,1,3.335-1.552c1.571.055,2.982,1.143,4.538,1.009,1.178-.1,2.224-.9,3.41-1.061a4.212,4.212,0,0,1,2.936.829,10.066,10.066,0,0,1,2.157,2.237,17.311,17.311,0,0,1,3.988,9.683c.445.322,1.085-.1,1.3-.605a14.3,14.3,0,0,1,.507-1.571,5.805,5.805,0,0,1,1.422-1.269,5.561,5.561,0,0,0,1.485-4.451,22.183,22.183,0,0,1-.055-4.84c.185-.97.6-1.886.829-2.849a3.724,3.724,0,0,0-.28-2.871c-.786-1.213-2.439-1.458-3.882-1.571-1.638-.14-3.1.039-4.149-1.339a15.359,15.359,0,0,0-1.649-2.02C863.379,269.512,861.291,268.216,861.291,268.13Z" transform="translate(-599.678 -197.02)" fill="#512e4e"/>
      <path id="Path_226" data-name="Path 226" d="M779.938,468.633l-4.1-7.586-1.3,11.708a54.306,54.306,0,0,1,.577,6c-.14.8,2.962,7.947,2.962,7.947s10.265,18.287,14.457,19.227l14.143-10.12-3.756-4.771s-1.3-.507-1.626,0c0,0-6.977-12-7.7-12.861a4.37,4.37,0,0,1-.582-2.6s-1.085-1.155-.723-2.237-2.075-4.84-2.075-4.84l2.237-2.1Z" transform="translate(-561.029 -314.677)" opacity="0.1"/>
      <path id="Path_227" data-name="Path 227" d="M774.7,458.828l-1.085.868-1.3,11.708a54.335,54.335,0,0,1,.577,6c-.14.8,2.966,7.947,2.966,7.947s10.262,18.287,14.453,19.227l14.166-10.12-3.759-4.77s-1.3-.507-1.627,0c0,0-6.973-12-7.7-12.861a4.334,4.334,0,0,1-.577-2.6s-1.085-1.155-.723-2.237-2.1-4.84-2.1-4.84l2.237-2.1Z" transform="translate(-559.682 -313.328)" fill="#fff"/>
      <path id="Path_228" data-name="Path 228" d="M936.979,564.818c.786.955.291,5.245.291,5.245L935.1,573.65s.13,2.318.14,5.452l-3.646,1.139a2.168,2.168,0,0,1-2.812-2.137l.632-20.27,8.5,3.249c-.723.5.07,1.736.07,1.736S936.187,563.865,936.979,564.818Z" transform="translate(-654.678 -373.44)" opacity="0.1"/>
      <path id="Path_229" data-name="Path 229" d="M938.105,563.716c.786.951.291,5.241.291,5.241l-2.161,3.591s.13,2.313.14,5.441l-3.713,1.159a2.118,2.118,0,0,1-2.75-2.086l.633-20.342,8.5,3.257c-.727.5.067,1.736.067,1.736S937.3,562.761,938.105,563.716Z" transform="translate(-655.371 -372.768)" fill="#fff"/>
      <path id="Path_230" data-name="Path 230" d="M947.405,545.036s-.577,3.689-2.023,3.906-2.1,5.968-3.535,5.766-.488-5.351-.436-6.348-1.571-5.13-.362-6.07,5.06,0,5.06,0Z" transform="translate(-661.851 -363.762)" fill="#fbbebe"/>
      <path id="Path_231" data-name="Path 231" d="M948.147,469.094l2.723-5.5a35.574,35.574,0,0,1,1.089,6.43c0,2.237,1.517,2.459,1.517,2.459s1.662,1.957.786,3.4a16.443,16.443,0,0,0-1.226,4.985s.287,6.792-1.013,7.732a5.333,5.333,0,0,0-1.591,3.182s-2.385,4.262-2.311,5.276-3.324,7.877-3.324,7.877,1.662-8.527-8.023-12.214c0,0-.074-2.891.649-3.685s1.851-1.178,1.144-5.172a46.834,46.834,0,0,1-.2-9.766,61.467,61.467,0,0,1,2.168-6.962Z" transform="translate(-659.538 -316.222)" opacity="0.1"/>
      <path id="Path_232" data-name="Path 232" d="M950.732,461.594l2.376.786a35.562,35.562,0,0,1,1.089,6.43c0,2.237,1.517,2.459,1.517,2.459s1.662,1.957.786,3.4a16.488,16.488,0,0,0-1.23,4.985s.291,6.792-1.009,7.732a5.263,5.263,0,0,0-1.571,3.182s-2.385,4.262-2.309,5.276-3.327,7.877-3.327,7.877,1.662-8.527-8.023-12.214c0,0-.071-2.891.651-3.685s1.851-1.178,1.143-5.172a46.864,46.864,0,0,1-.2-9.767,61.409,61.409,0,0,1,2.168-6.962Z" transform="translate(-660.913 -315.007)" fill="#fff"/>
      <path id="Path_233" data-name="Path 233" d="M834.937,822.474s3.8-2.385,6.291-.651S834.937,822.474,834.937,822.474Z" transform="translate(-597.713 -533.332)" opacity="0.1"/>
      <path id="Path_234" data-name="Path 234" d="M910,805.687a7.689,7.689,0,0,1,6.18,2.6C919,811.328,910,805.687,910,805.687Z" transform="translate(-643.28 -523.918)" opacity="0.1"/>
      <g id="Group_242" data-name="Group 242" transform="translate(238.495 78.882)" opacity="0.1">
        <path id="Path_235" data-name="Path 235" d="M879.954,307.674a5.872,5.872,0,0,0-1.426,1.269,14.581,14.581,0,0,0-.5,1.571c-.22.507-.861.927-1.308.605a17.367,17.367,0,0,0-3.984-9.683,10.044,10.044,0,0,0-2.157-2.237,4.223,4.223,0,0,0-2.936-.839c-1.179.161-2.216.963-3.407,1.065-1.571.13-2.982-.959-4.542-1.009a4.432,4.432,0,0,0-3.331,1.547,9.106,9.106,0,0,0-1.788,3.312,19.436,19.436,0,0,0-1,5.72c-.024,1.1-.126,2.463-1.139,2.871a5.416,5.416,0,0,1,0,.877c1.025-.393,1.128-1.78,1.151-2.88a19.436,19.436,0,0,1,1-5.72,9.1,9.1,0,0,1,1.788-3.312,4.447,4.447,0,0,1,3.331-1.552c1.571.055,2.986,1.144,4.542,1.009,1.178-.1,2.224-.9,3.407-1.061a4.222,4.222,0,0,1,2.935.829,10.065,10.065,0,0,1,2.157,2.237,17.334,17.334,0,0,1,3.984,9.683c.447.322,1.089-.1,1.308-.605a15.135,15.135,0,0,1,.5-1.571,5.828,5.828,0,0,1,1.426-1.269,5.561,5.561,0,0,0,1.485-4.451v-.15a5.172,5.172,0,0,1-1.5,3.742Z" transform="translate(-846.822 -294.778)"/>
        <path id="Path_236" data-name="Path 236" d="M842.256,312.241c-.9-.994-2.133-1.662-2.962-2.715a5.7,5.7,0,0,1-1.144-3.215,6.056,6.056,0,0,0,1.144,4.082c.829,1.053,2.063,1.717,2.962,2.711a5.892,5.892,0,0,1,1.484,3.5,5.894,5.894,0,0,0-1.484-4.368Z" transform="translate(-838.128 -299.621)"/>
        <path id="Path_237" data-name="Path 237" d="M926.776,290.023c-.232.963-.645,1.877-.839,2.849a9.1,9.1,0,0,0-.121,1.988,7.628,7.628,0,0,1,.121-1.118c.189-.97.6-1.886.839-2.849a4.936,4.936,0,0,0,.13-1.626,5.489,5.489,0,0,1-.13.756Z" transform="translate(-891.382 -289.267)"/>
      </g>
    </g>
    <g id="Pot">
      <ellipse id="Ellipse_26" data-name="Ellipse 26" cx="27.384" cy="4.398" rx="27.384" ry="4.398" transform="translate(9.78 226.956)" fill="#6c63ff" opacity="0.1"/>
      <rect id="Rectangle_116" data-name="Rectangle 116" width="1.762" height="39.674" transform="translate(36.284 147.098)" fill="#535461"/>
      <path id="Path_238" data-name="Path 238" d="M130.043,675.849l-.112,1.787-.155,2.529-.065,1.051-.157,2.529-.067,1.051-.155,2.529-1.779,28.685a4.856,4.856,0,0,1-4.848,4.558h-9.238a4.853,4.853,0,0,1-4.848-4.578L106.84,687.3l-.155-2.529-.065-1.051-.16-2.529-.065-1.051-.155-2.529-.112-1.787a2.529,2.529,0,0,1,2.512-2.673h18.891a2.529,2.529,0,0,1,2.51,2.692Z" transform="translate(-80.921 -489.195)" fill="#3f3d56"/>
      <path id="Path_239" data-name="Path 239" d="M114.269,670.531l-.157,2.524H90.736l-.157-2.524Z" transform="translate(-65.26 -482.093)" fill="#9d9cb5"/>
      <path id="Path_240" data-name="Path 240" d="M114.618,683.25l-.155,2.524H91.528l-.157-2.524Z" transform="translate(-65.831 -491.237)" fill="#9d9cb5"/>
      <path id="Path_241" data-name="Path 241" d="M114.963,695.969l-.155,2.521H92.318l-.157-2.521Z" transform="translate(-66.398 -500.379)" fill="#9d9cb5"/>
      <path id="Path_242" data-name="Path 242" d="M39.08,574.841c10.263,7.425,14.538,19.037,14.538,19.037s-12.365-.424-22.632-7.849S16.44,567,16.44,567,28.806,567.416,39.08,574.841Z" transform="translate(-16.44 -412.871)" fill="#6c63ff"/>
      <path id="Path_243" data-name="Path 243" d="M16.44,567s12.835,7.124,16.952,13.023,20.215,13.861,20.215,13.861" transform="translate(-16.44 -412.871)" fill="none" stroke="#535461" stroke-miterlimit="10" stroke-width="2"/>
      <path id="Path_244" data-name="Path 244" d="M89.021,530.756a24.882,24.882,0,0,1,7.914,10.359,24.864,24.864,0,0,1-12.318-4.269A25.026,25.026,0,0,1,76.7,526.484a24.88,24.88,0,0,1,12.321,4.272Z" transform="translate(-59.768 -383.743)" fill="#6c63ff"/>
      <path id="Path_245" data-name="Path 245" d="M76.7,526.484s6.987,3.878,9.229,7.088,11,7.543,11,7.543" transform="translate(-59.768 -383.743)" fill="none" stroke="#535461" stroke-miterlimit="10" stroke-width="2"/>
      <path id="Path_246" data-name="Path 246" d="M157.687,553.665a34.417,34.417,0,0,0-7.773,16.266,31.281,31.281,0,0,0,23.23-25.54A34.445,34.445,0,0,0,157.687,553.665Z" transform="translate(-112.405 -396.613)" fill="#6c63ff"/>
      <path id="Path_247" data-name="Path 247" d="M173.15,544.422s-8.358,7.228-10.483,12.208-12.753,13.329-12.753,13.329" transform="translate(-112.405 -396.641)" fill="none" stroke="#535461" stroke-miterlimit="10" stroke-width="2"/>
    </g>
  </g>
</svg>
