<svg xmlns="http://www.w3.org/2000/svg" width="328" height="197.518" viewBox="0 0 328 197.518">
  <g id="OTP_Illustration" data-name="OTP Illustration" transform="translate(0 -0.018)">
    <g id="Background">
      <path id="Path_128" data-name="Path 128" d="M699.683,257.628l2.812-.486c.27-.047.538-.1.807-.154a23.088,23.088,0,0,1,14.742-42.56l-3.686,8.772,8.734-7.626a.4.4,0,0,1,.06.02,23.089,23.089,0,0,1,14.107,29.449c-.146.416-.32.813-.487,1.215a27.6,27.6,0,0,0,6.76-4.528c3.905-3.742,6.045-8.906,8.436-15.267,4.737-12.607,9.3-25.4,13.676-38.213a23.079,23.079,0,0,1-10.79-27.949c.235-.667.506-1.308.794-1.939.072-.158.145-.314.22-.47.293-.6.6-1.2.941-1.765.055-.093.117-.18.174-.272q.443-.719.934-1.395c.122-.169.244-.338.37-.5.371-.485.755-.958,1.161-1.408.135-.151.279-.292.418-.439q.467-.493.96-.956c.173-.163.344-.326.522-.483.046-.04.088-.084.134-.124l.006.009a23.073,23.073,0,0,1,29.521-.663l-4.8,11.415,8.635-7.535a22.961,22.961,0,0,1,.853,27.193l.024.008c-.094.139-.2.265-.3.4q-.273.383-.559.753c-.245.316-.5.621-.76.922-.2.227-.39.456-.594.675-.3.32-.612.623-.928.924-.184.176-.36.36-.549.529q-.745.665-1.54,1.262c-.186.139-.383.262-.573.4-.372.262-.747.52-1.134.759-.24.148-.486.284-.731.423-.355.2-.712.4-1.077.581-.259.13-.519.253-.782.373-.374.171-.754.329-1.137.48-.257.1-.513.2-.774.3-.43.151-.866.283-1.305.409-.222.064-.44.137-.663.194-.658.168-1.324.311-2,.42-.127.021-.256.028-.383.047-.558.081-1.12.147-1.685.187-.243.017-.488.02-.732.029-.457.018-.915.027-1.375.017-.268-.006-.537-.02-.806-.035q-.672-.038-1.346-.117c-.265-.031-.53-.061-.8-.1-.481-.073-.961-.168-1.442-.273l-.095-.018q-2.772,8.111-5.647,16.188a23.073,23.073,0,0,1,33.457,2.758l-7.982,8.828,10.808-4.314a23.01,23.01,0,0,1,.924,17.577,22.651,22.651,0,0,1-2.933,5.674,23.08,23.08,0,0,1-41.7-10.126c-.2.542-.4,1.092-.6,1.634-2.11,5.612-4.735,12.6-10.006,17.647-3.573,3.423-7.97,5.594-12.188,7.43q-4.12,1.793-8.35,3.315a23.14,23.14,0,0,1-10.333,3.293c-4.449,1.236-8.955,2.268-13.5,3.064l-2.836.489c-2.548.437-5.161.886-7.755,1.4.373.111.747.216,1.119.347a23.1,23.1,0,0,1,15.418,22.47l-17.776,5.456,16.086,2.554a23.1,23.1,0,0,1-38.49,6.831q.245.821.492,1.639c.327,1.084.651,2.161.962,3.229,4.233,14.544,2.411,25.985-5.13,32.213l-4.092-4.953c7.34-6.063,5.063-18.557,3.053-25.465-.305-1.048-.624-2.107-.945-3.171-2.757-9.158-5.882-19.54-1.834-29.079C667.975,263.057,685.557,260.047,699.683,257.628Z" transform="translate(-476.538 -144.859)" fill="#ff7364" opacity="0.2"/>
    </g>
    <g id="Letter">
      <path id="Path_129" data-name="Path 129" d="M474.18,454.284H349.63a15.4,15.4,0,0,1-15.4-15.4V381.821a6.1,6.1,0,0,1,1.9-4.428l66-62.562a14.2,14.2,0,0,1,19.544,0l62.927,59.65a15.947,15.947,0,0,1,4.976,11.574v52.83a15.4,15.4,0,0,1-15.4,15.4Z" transform="translate(-256.246 -257.173)" fill="#3f3d56"/>
      <path id="Path_130" data-name="Path 130" d="M240.954,387.992H395.01v62.227a9.3,9.3,0,0,1-9.3,9.3H250.253a9.3,9.3,0,0,1-9.3-9.3V387.992Z" transform="translate(-162.97 -262.407)" opacity="0.1"/>
      <path id="Path_131" data-name="Path 131" d="M333.73,521.351" transform="translate(-255.907 -399.489)" fill="none" stroke="#3f3d56" stroke-miterlimit="10" stroke-width="1"/>
      <rect id="Rectangle_82" data-name="Rectangle 82" width="114.571" height="114.571" rx="26.181" transform="translate(98.212 76.552)" fill="#6c63ff"/>
      <path id="Path_132" data-name="Path 132" d="M418.025,395.942v62.966H303.454V395.942L360.74,423.63Z" transform="translate(-205.242 -267.784)" opacity="0.1"/>
      <path id="Path_133" data-name="Path 133" d="M411.405,562.591,338,527.114a2.978,2.978,0,0,0-4.274,2.681v61.04a9.3,9.3,0,0,0,9.3,9.3H479.781a9.3,9.3,0,0,0,9.3-9.3V530.841a3.634,3.634,0,0,0-5.216-3.272Z" transform="translate(-255.907 -403.185)" fill="#3f3d56"/>
      <rect id="Rectangle_83" data-name="Rectangle 83" width="32.041" height="4.531" transform="translate(108.083 87.07)" fill="#f2f2f2"/>
      <rect id="Rectangle_84" data-name="Rectangle 84" width="95.152" height="2.589" transform="translate(105.494 103.576)" fill="#f2f2f2"/>
      <rect id="Rectangle_85" data-name="Rectangle 85" width="95.152" height="2.589" transform="translate(105.494 112.315)" fill="#f2f2f2"/>
      <rect id="Rectangle_86" data-name="Rectangle 86" width="95.152" height="2.589" transform="translate(105.494 121.053)" fill="#f2f2f2"/>
    </g>
    <g id="Base">
      <line id="Line" x2="266.686" transform="translate(19.728 196.949)" fill="none" stroke="#3f3d56" stroke-miterlimit="10" stroke-width="1"/>
    </g>
    <g id="Inkpot">
      <path id="Path_134" data-name="Path 134" d="M93.275,630.212c0,19.082,11.971,34.523,26.765,34.523" transform="translate(-93.275 -473.117)" fill="#46455b"/>
      <path id="Path_135" data-name="Path 135" d="M175.975,663.925c0-19.3,13.359-34.911,29.869-34.911" transform="translate(-149.209 -472.307)" fill="#6c63ff"/>
      <path id="Path_136" data-name="Path 136" d="M123.239,635.557c0,18.126,7.634,32.794,17.068,32.794" transform="translate(-113.541 -476.732)" fill="#6c63ff"/>
      <path id="Path_137" data-name="Path 137" d="M175.975,643.66c0-24.657,15.441-44.609,34.523-44.609" transform="translate(-149.209 -452.041)" fill="#46455b"/>
      <path id="Path_138" data-name="Path 138" d="M158.577,733.349s3.8-.117,4.94-.931,5.839-1.787,6.123-.481,5.7,6.5,1.419,6.532-9.957-.667-11.1-1.363S158.577,733.349,158.577,733.349Z" transform="translate(-137.442 -541.487)" fill="#a8a8a8"/>
      <path id="Path_139" data-name="Path 139" d="M171.135,742.29c-4.285.035-9.957-.668-11.1-1.363-.87-.53-1.216-2.43-1.332-3.307l-.127,0s.24,3.061,1.382,3.757,6.814,1.4,11.1,1.363c1.237-.01,1.664-.45,1.641-1.1C172.527,742.036,172.056,742.282,171.135,742.29Z" transform="translate(-137.442 -545.762)" opacity="0.2"/>
    </g>
    <g id="Human">
      <path id="Path_140" data-name="Path 140" d="M808.35,296.3c-.195,1.733-1.516,3.129-2.006,4.8-.737,2.519.537,5.222,2.281,7.184a15.91,15.91,0,0,0,11.08,5.261,4.726,4.726,0,0,0,1.832-.2,3.922,3.922,0,0,0,1.394-.952,8.91,8.91,0,0,0,2.3-4.985,26.542,26.542,0,0,0,.062-5.571,3.145,3.145,0,0,0-.206-1.124,2.879,2.879,0,0,0-.723-.889,16.856,16.856,0,0,0-3.1-2.255,3.564,3.564,0,0,1-1.3-1,3.218,3.218,0,0,1-.4-1.191l-.343-1.747a3.433,3.433,0,0,0-.5-1.416,3.485,3.485,0,0,0-2.781-.968l-3.723-.146a17.942,17.942,0,0,0-3.815-.15c-1.056.212-.705,1.185-.513,2.071A14.974,14.974,0,0,1,808.35,296.3Z" transform="translate(-575.417 -243.608)" fill="#a0616a"/>
      <path id="Path_141" data-name="Path 141" d="M808.35,296.3c-.195,1.733-1.516,3.129-2.006,4.8-.737,2.519.537,5.222,2.281,7.184a15.91,15.91,0,0,0,11.08,5.261,4.726,4.726,0,0,0,1.832-.2,3.922,3.922,0,0,0,1.394-.952,8.91,8.91,0,0,0,2.3-4.985,26.542,26.542,0,0,0,.062-5.571,3.145,3.145,0,0,0-.206-1.124,2.879,2.879,0,0,0-.723-.889,16.856,16.856,0,0,0-3.1-2.255,3.564,3.564,0,0,1-1.3-1,3.218,3.218,0,0,1-.4-1.191l-.343-1.747a3.433,3.433,0,0,0-.5-1.416,3.485,3.485,0,0,0-2.781-.968l-3.723-.146a17.942,17.942,0,0,0-3.815-.15c-1.056.212-.705,1.185-.513,2.071A14.974,14.974,0,0,1,808.35,296.3Z" transform="translate(-575.417 -243.608)" opacity="0.1"/>
      <path id="Path_142" data-name="Path 142" d="M845.694,530.712l-1.583,17.35c-.413,4.551-.834,9.12-1.644,13.612-.28,1.548-.608,3.088-1,4.615-1.082,4.239-2.651,8.382-3.157,12.728-.016.125-.029.253-.043.381a11.062,11.062,0,0,1-.541,2.824c-.253.663-.642,1.268-.917,1.924a12.273,12.273,0,0,0-.685,4.18,18.022,18.022,0,0,0-6.205-2.121,4.745,4.745,0,0,1-2.941-1.055c-.794-.869-.706-2.2-.573-3.365q.628-5.435,1.252-10.865a28.332,28.332,0,0,1,.791-4.615c.144-.5.317-1,.493-1.495.242-.682.488-1.364.671-2.065a24.877,24.877,0,0,0,.554-3.44c.429-3.645.946-7.282,1.4-10.924l.024-.192a111.707,111.707,0,0,0,1.047-16.628c-.021-.823-.056-1.647-.109-2.473-.075-1.2-.184-1.83.807-2.579a18.638,18.638,0,0,1,3.789-1.945c.674-.293,8.1-2.928,8.27-2.35a14.46,14.46,0,0,1,.544,3.789A42.164,42.164,0,0,1,845.694,530.712Z" transform="translate(-589.073 -400.017)" fill="#605d82"/>
      <path id="Path_143" data-name="Path 143" d="M847.95,616.129c-.28,1.548-.607,3.088-1,4.615-1.082,4.239-2.651,8.382-3.157,12.728-.016.125-.029.253-.043.381-3.309-4.727-6.1-9.81-9.325-14.587.242-.682.488-1.364.671-2.065a24.879,24.879,0,0,0,.554-3.44c.429-3.645.946-7.282,1.4-10.924l.024-.192a11.32,11.32,0,0,0,.807,2.241c2.169,4.407,7.322,6.634,9.842,10.852Q847.842,615.933,847.95,616.129Z" transform="translate(-594.556 -454.472)" opacity="0.1"/>
      <path id="Path_144" data-name="Path 144" d="M793.216,479.76a81.984,81.984,0,0,0,1.24,10.528l1.165,7.2c.638,3.942,1.3,7.964,3.167,11.495a53.234,53.234,0,0,0,5.225,7.264c4.471,5.825,7.83,12.424,12.07,18.42,1.232,1.743,2.994,3.628,5.1,3.264,1.38-.239,2.383-1.388,3.468-2.274,1.279-1.045,2.821-1.809,3.828-3.119s1.2-3.486-.16-4.418a7.194,7.194,0,0,0-1.561-.639c-2.114-.8-3.482-2.868-4.353-4.956s-1.4-4.332-2.558-6.273c-2.52-4.218-7.674-6.445-9.843-10.853-1.215-2.469-1.331-5.315-1.424-8.065l-.237-7.011a5.119,5.119,0,0,1,.266-2.265c.83-1.866,3.335-2.04,5.364-2.277a18.35,18.35,0,0,0,6.573-2.074,6.858,6.858,0,0,0,2.935-2.607,8.4,8.4,0,0,0,.716-3.532l.7-12.706a7.956,7.956,0,0,0-.27-3.248c-.967-2.573-4.217-3.414-6.963-3.291-5.11.228-9.828,2.427-14.647,3.911a37.261,37.261,0,0,1-3.63.947,29.206,29.206,0,0,0-3.422.475c-1.834.618-1.788,4.63-2.048,6.294a52.988,52.988,0,0,0-.7,9.808Z" transform="translate(-566.674 -356.853)" fill="#605d82"/>
      <path id="Path_145" data-name="Path 145" d="M875.372,688.8a3.248,3.248,0,0,1,.715,1.749,59.744,59.744,0,0,1,1.012,10.581,1.728,1.728,0,0,0,.19.959,1.2,1.2,0,0,0,.5.4c1.3.621,2.814-.244,3.9-1.195,2.012-1.762,3.714-4.128,3.829-6.8a15.784,15.784,0,0,1,.072-2.062,8.608,8.608,0,0,1,1.282-2.763,23.318,23.318,0,0,0,2.118-4.748c.2-.622.33-1.406-.158-1.841a1.773,1.773,0,0,0-.58-.3l-5.883-2.185c-.51-.189-1.779,3.07-1.98,3.426a2.692,2.692,0,0,1-1.97,1.567c-1.009.205-2.209-.089-3.151.414C873.673,686.848,874.471,687.887,875.372,688.8Z" transform="translate(-621.56 -507.184)" fill="#535070"/>
      <path id="Path_146" data-name="Path 146" d="M835.451,710.058a1.8,1.8,0,0,0-.448-.568,2.028,2.028,0,0,0-.9-.307c-1.12-.19-2.448-.315-3.221.517-.725.781-.6,2.052-1.206,2.928-.192.277-.452.506-.618.8a3.014,3.014,0,0,0-.271,1.433c-.031,1.358-.062,2.718.031,4.073a5.7,5.7,0,0,0,.98,3.214c1.14,1.428,3.195,1.633,5.019,1.725l1.478.075a2.884,2.884,0,0,0,1.211-.111,1.994,1.994,0,0,0,1.044-1.149c.769-1.912-.449-3.971-1.2-5.89C836.485,714.592,836.641,712.143,835.451,710.058Z" transform="translate(-590.717 -526.435)" fill="#535070"/>
      <path id="Path_147" data-name="Path 147" d="M801.05,255.541a1.222,1.222,0,0,1,.083-.57c.216-.383.782-.279,1.208-.171,1.714.432,3.521.041,5.286.142s3.753.983,4.108,2.715a12.889,12.889,0,0,0,3.259-3.348,4.02,4.02,0,0,0,.85-2.452c-.1-1.268-1.16-2.216-2.145-3.021l-2.937-2.4a4.423,4.423,0,0,0-1.315-.836,6.552,6.552,0,0,0-2.134-.121c-2.138,0-4.417-.971-6.318.006a6.821,6.821,0,0,0-1.968,1.79l-2.621,3.1a1.657,1.657,0,0,0-.419.71,3.156,3.156,0,0,0,.188,1.132c.124.693-.175,1.433.055,2.1.381,1.1,1.723,1.261,2.543,1.895.306.236.785,1.036,1.149,1.026C800.579,257.226,801.033,256.052,801.05,255.541Z" transform="translate(-568.545 -212.614)" fill="#3f3d56"/>
      <circle id="Ellipse_16" data-name="Ellipse 16" cx="8.393" cy="8.393" r="8.393" transform="translate(228.56 35.287)" fill="#a0616a"/>
      <path id="Path_148" data-name="Path 148" d="M789.278,317.6a4.066,4.066,0,0,0-3.958-2.724,1.207,1.207,0,0,1-.73-.092,1.008,1.008,0,0,1-.3-.375,14.663,14.663,0,0,1-1.224-2.893c-.134-.444-.317-.968-.766-1.083a1.035,1.035,0,0,0-.977.425,8.616,8.616,0,0,1-.7.878c-1.056.944-2.927.084-4.047.949-.183.141-.334.323-.526.451a2.457,2.457,0,0,1-.616.264,59.1,59.1,0,0,0-6.352,2.488c.745,4.488,1.509,9.054,3.256,13.255.831,2,1.773,3.957,2.439,6.017,1.475,4.565,1.54,9.449,1.557,14.246.011,3.283-.005,6.636-1.067,9.743a9.189,9.189,0,0,0-.6,2.14,2.217,2.217,0,0,0,.751,2,2.569,2.569,0,0,0,1.159.407,15.015,15.015,0,0,0,5.508-.639c4.857-1.125,9.811-1.769,14.756-2.411l8.285-1.076a4.809,4.809,0,0,0,1.714-.443c1.516-.83,1.66-3.111.719-4.56a24.788,24.788,0,0,1-1.468-2,1.86,1.86,0,0,1,.241-2.277c1.328-1.038.932-2.964,1-4.648q.266-7.065-.072-14.135a28.128,28.128,0,0,1-.047-2.932,25.956,25.956,0,0,1,.914-4.892l2.518-9.913a5.165,5.165,0,0,0-3.11-2c-1.193-.3-2.435-.387-3.61-.751-2.407-.746-4.549-2.638-7.063-2.462a1.282,1.282,0,0,0-.547.134c-.567.321-.477,1.138-.513,1.789a4.94,4.94,0,0,1-2.308,3.485,41.071,41.071,0,0,0-3.578,2.42,1.6,1.6,0,0,0-.635,1.222Z" transform="translate(-550.359 -255.553)" fill="#3f3d56"/>
      <path id="Path_149" data-name="Path 149" d="M719.407,359.1a9.9,9.9,0,0,1-1.765.908,5.8,5.8,0,0,0-1.691.821,2.652,2.652,0,0,0-.588.727,3.231,3.231,0,0,0,2.979,4.814,6.486,6.486,0,0,0,2.2-.657l5.92-2.565a4.655,4.655,0,0,0,2.558-1.927.448.448,0,0,0,.058-.306.506.506,0,0,0-.243-.256,13.226,13.226,0,0,1-3.447-3.25c-.243-.33-.54-1.108-.883-1.306C723.254,355.378,720.41,358.445,719.407,359.1Z" transform="translate(-513.744 -287.646)" fill="#a0616a"/>
      <path id="Path_150" data-name="Path 150" d="M894.729,359.084l2.182,2.493c.469.535.938,1.071,1.365,1.64a19.141,19.141,0,0,1,2.5,4.709,8.223,8.223,0,0,1,.7,3.893,9.524,9.524,0,0,1-.546,1.98,24.644,24.644,0,0,1-1.483,3.572,20.336,20.336,0,0,1-1.669,2.5,58.387,58.387,0,0,1-5.532,6.328,7.212,7.212,0,0,0-1.384,2.931,12.241,12.241,0,0,1-3.4,4.636A9.464,9.464,0,0,1,886,395.023a4.759,4.759,0,0,1-2.659.757,2.919,2.919,0,0,1-1.2-.248,3.1,3.1,0,0,1-1.521-2.578,5.484,5.484,0,0,1,.459-2.758c1.252-2.774,4.468-3.976,6.741-6a21.894,21.894,0,0,0,3.358-4.153,14.354,14.354,0,0,0,1.7-2.976c.508-1.355.31-2.958.754-4.335.187-.582.521-1.108.722-1.685a1.966,1.966,0,0,0-.1-1.762,2.561,2.561,0,0,0-.988-.723c-1.452-.737-3.079-1.686-3.356-3.29a3.525,3.525,0,0,1,.65-2.513,10.468,10.468,0,0,1,1.831-1.919C893.025,360.277,894.093,359.646,894.729,359.084Z" transform="translate(-625.783 -289.739)" fill="#a0616a"/>
      <path id="Path_151" data-name="Path 151" d="M703.367,371.721a4.055,4.055,0,0,0-1.645-1.96,3.031,3.031,0,0,0-2.391-.01,8.988,8.988,0,0,0-2.1,1.269l-1.881,1.387a4.631,4.631,0,0,0-1.117,1.031,4.354,4.354,0,0,0-.582,1.6,11.409,11.409,0,0,0-.3,3.947,11.221,11.221,0,0,0,2.985,5.588,4.968,4.968,0,0,0,3.3,2.07,1.515,1.515,0,0,0,1.46-.735,1.832,1.832,0,0,0,.13-.655,14.585,14.585,0,0,0-1.689-6.832,4.382,4.382,0,0,1-.545-1.836.5.5,0,0,1,.08-.307.519.519,0,0,1,.321-.157c1.351-.267,3.678.782,4.626-.718C704.645,374.426,703.8,372.6,703.367,371.721Z" transform="translate(-499.104 -296.791)" fill="#a0616a"/>
      <path id="Path_152" data-name="Path 152" d="M799.69,247.382a1.222,1.222,0,0,1,.083-.57c.216-.383.781-.279,1.208-.171,1.714.432,3.521.041,5.286.142s3.753.983,4.108,2.715a12.889,12.889,0,0,0,3.259-3.348,4.02,4.02,0,0,0,.85-2.452c-.1-1.268-1.16-2.216-2.145-3.021l-2.937-2.4a4.425,4.425,0,0,0-1.315-.836,6.554,6.554,0,0,0-2.134-.121c-2.138,0-4.417-.971-6.318.006a6.82,6.82,0,0,0-1.968,1.79l-2.621,3.1a1.656,1.656,0,0,0-.419.71,3.154,3.154,0,0,0,.188,1.132c.124.693-.175,1.433.055,2.1.381,1.1,1.723,1.261,2.543,1.895.306.236.785,1.036,1.149,1.026C799.219,249.067,799.673,247.893,799.69,247.382Z" transform="translate(-567.625 -207.096)" fill="#3f3d56"/>
      <path id="Path_153" data-name="Path 153" d="M745.85,334.532a3.41,3.41,0,0,0-.878.818c-.308.465-.37,1.053-.635,1.544-.566,1.051-1.889,1.425-2.714,2.287a.854.854,0,0,0-.261.447,1,1,0,0,0,.222.644l3.98,6.257c1.325.117,2.6-.714,3.922-.6a3.94,3.94,0,0,0,1.476.066,4.234,4.234,0,0,0,.947-.579c.791-.5,1.844-.558,2.508-1.218a3.434,3.434,0,0,0,.71-2.522,10.137,10.137,0,0,0-.237-2.32c-.586-2.4-2.423-4.245-3.574-6.372-.56-1.036-.866-1.642-2.052-.931S746.973,333.711,745.85,334.532Z" transform="translate(-531.611 -271.246)" fill="#3f3d56"/>
      <path id="Path_154" data-name="Path 154" d="M890.281,326.175a9.311,9.311,0,0,1,2,1.754c.606.782.95,1.738,1.532,2.538a28.332,28.332,0,0,0,1.973,2.089,16.137,16.137,0,0,1,2.275,3.706,55.362,55.362,0,0,1-5.148,5.818,1.661,1.661,0,0,1-.782.514,1.261,1.261,0,0,1-1.105-.451c-.287-.3-.49-.671-.764-.984a3.936,3.936,0,0,0-2.433-1.177,16.706,16.706,0,0,0-2.757-.038,1.09,1.09,0,0,1-.589-.1.989.989,0,0,1-.321-.368c-1.077-1.834-.731-4.136-.351-6.228l.872-4.8a10.775,10.775,0,0,1,.726-2.669c.33-.706,1.069-1.9,1.978-1.692S889.51,325.621,890.281,326.175Z" transform="translate(-627.707 -266.052)" fill="#3f3d56"/>
    </g>
    <g id="Check">
      <ellipse id="Ellipse_17" data-name="Ellipse 17" cx="13.27" cy="13.294" rx="13.27" ry="13.294" transform="translate(89.636 65.062)" fill="#fff"/>
      <path id="Path_155" data-name="Path 155" d="M378.089,338.851a15.859,15.859,0,1,0,15.859,15.859A15.859,15.859,0,0,0,378.089,338.851Zm-3.256,24.314-8.128-8.128,2.28-2.28,5.855,5.855L387.2,346.254l2.28,2.28-14.646,14.631Z" transform="translate(-275.183 -276.054)" fill="#ff7364"/>
    </g>
  </g>
</svg>
